<svg xmlns="http://www.w3.org/2000/svg" width="164" height="79.566" viewBox="0 0 164 79.566">
  <g id="add-new-homework-vector" transform="translate(4.438 -4.098)">
    <g id="Group_6046" data-name="Group 6046" transform="translate(-4.438 11.508)">
      <path id="Fill_3" data-name="Fill 3" d="M6.933,0a6.933,6.933,0,1,0,0,13.866h8.05A6.933,6.933,0,0,0,14.983,0Z" transform="translate(12.379 55.465)" fill="#edeff7"/>
      <path id="Fill_5" data-name="Fill 5" d="M131.456.071A6.985,6.985,0,0,0,130.518,0H42.783a6.933,6.933,0,0,0,0,13.866h3.342v.008a6.927,6.927,0,0,1,0,13.85v.008H6.933a6.933,6.933,0,0,0,0,13.866H56.392v.008a6.927,6.927,0,0,1,0,13.85v.008H54.857a6.933,6.933,0,1,0,0,13.866h75.662a6.986,6.986,0,0,0,.938-.071,34.659,34.659,0,0,0,0-69.189Z" fill="#edeff7"/>
      <path id="Fill_28" data-name="Fill 28" d="M24.119,4.884H2.442A2.442,2.442,0,0,1,2.442,0H24.119a2.442,2.442,0,1,1,0,4.884" transform="translate(117.711 15.527)" fill="#fff"/>
    </g>
    <g id="Group_6155" data-name="Group 6155" transform="translate(29.806 4.098)">
      <g id="Group_6155-2" data-name="Group 6155" transform="translate(16.202 0)">
        <path id="Path" d="M7.474,0A7.445,7.445,0,0,0,0,7.4V59.2a7.445,7.445,0,0,0,7.474,7.4H48.664a7.444,7.444,0,0,0,7.474-7.4V7.4A7.444,7.444,0,0,0,48.664,0Z" transform="translate(5.282 7.744)" fill="#fff"/>
        <path id="Path-2" data-name="Path" d="M53.946,77.051H12.757A12.706,12.706,0,0,1,0,64.425v-51.8A12.706,12.706,0,0,1,12.757,0H53.946A12.706,12.706,0,0,1,66.7,12.626v51.8A12.706,12.706,0,0,1,53.946,77.051Z" transform="translate(0 2.515)" fill="#fff"/>
        <path id="Fill_12" data-name="Fill 12" d="M7.937,4.9H2.452a2.452,2.452,0,0,1,0-4.9H7.937a2.452,2.452,0,0,1,0,4.9" transform="translate(28.157 0)" fill="#4d5160"/>
        <path id="Fill_8" data-name="Fill 8" d="M47.625,67.363H9.389A9.4,9.4,0,0,1,0,57.973V9.39A9.4,9.4,0,0,1,9.389,0H47.625a9.4,9.4,0,0,1,9.389,9.39V57.973A9.4,9.4,0,0,1,47.625,67.363ZM16.363,45.984a2.452,2.452,0,0,0,0,4.9h9.068a2.452,2.452,0,0,0,0-4.9Zm0-13.17a2.452,2.452,0,0,0,0,4.9h24.29a2.452,2.452,0,1,0,0-4.9Zm0-13.17a2.452,2.452,0,0,0,0,4.9h24.29a2.452,2.452,0,1,0,0-4.9Z" transform="translate(4.844 7.359)" fill="#2f57e5"/>
        <path id="Fill_20" data-name="Fill 20" d="M5.751,12.936A5.757,5.757,0,0,1,0,7.185V2.452A2.452,2.452,0,0,1,2.452,0h19.46a2.452,2.452,0,0,1,2.452,2.452V7.185a5.757,5.757,0,0,1-5.751,5.751Z" transform="translate(21.171 2.515)" fill="#4d5160"/>
      </g>
      <g id="Group_6156" data-name="Group 6156" transform="translate(0 63.363)">
        <path id="Fill_30" data-name="Fill 30" d="M13.517,5.372H2.686A2.686,2.686,0,0,1,2.686,0h10.83a2.686,2.686,0,0,1,0,5.372" transform="translate(0 5.415)" fill="#2f57e5"/>
        <path id="Fill_32" data-name="Fill 32" d="M2.686,16.2A2.687,2.687,0,0,1,0,13.517V2.686a2.686,2.686,0,1,1,5.372,0V13.517A2.687,2.687,0,0,1,2.686,16.2" transform="translate(5.416 0)" fill="#2f57e5"/>
      </g>
    </g>
  </g>
</svg>
