<svg xmlns="http://www.w3.org/2000/svg" width="149.892" height="61.339" viewBox="0 0 149.892 61.339">
  <g id="folder-vector" transform="translate(-98.541 -349.107)">
    <g id="Group_6046" data-name="Group 6046" transform="translate(98.541 349.107)">
      <path id="Fill_3" data-name="Fill 3" d="M7.271,0a7.27,7.27,0,1,0,0,14.541h8.441A7.27,7.27,0,0,0,15.712,0Z" transform="translate(12.981 46.798)" fill="#edeff7"/>
      <path id="Fill_5" data-name="Fill 5" d="M120.148.063A6.591,6.591,0,0,0,119.291,0H39.1a6.238,6.238,0,0,0-6.337,6.134A6.238,6.238,0,0,0,39.1,12.268h3.055v.007A6.229,6.229,0,0,1,48.345,18.4a6.229,6.229,0,0,1-6.188,6.127v.007H6.337a6.137,6.137,0,1,0,0,12.268h45.2v.007a6.127,6.127,0,1,1,0,12.253v.007h-1.4a6.137,6.137,0,1,0,0,12.268h69.153a6.592,6.592,0,0,0,.857-.063c16.595-.971,29.745-14.3,29.745-30.607S136.742,1.034,120.148.063Z" fill="#edeff7"/>
      <path id="Fill_28" data-name="Fill 28" d="M25.292,5.122H2.561A2.561,2.561,0,0,1,2.561,0H25.292a2.561,2.561,0,1,1,0,5.122" transform="translate(101.352 13.545)" fill="#fff"/>
    </g>
    <g id="Group_6030" data-name="Group 6030" transform="translate(146.349 357.463)">
      <path id="Path_12470" data-name="Path 12470" d="M8.495-1.921V8.362c-.906-.6-3.222-.858-5.152-.858h-18.42l-4.135-4.669L-20.246,1.68H-36.32c-1.93,0-4.482.248-5.169.853V-1.921A5.207,5.207,0,0,1-36.32-7.09H3.326A5.184,5.184,0,0,1,8.495-1.921Z" transform="translate(43.765 7.09)" fill="#4d5160"/>
      <path id="Path_12471" data-name="Path 12471" d="M11.464,10.993V33.6A5.173,5.173,0,0,1,6.3,38.767H-37.641A5.2,5.2,0,0,1-42.81,33.6V5.169A5.2,5.2,0,0,1-37.641,0h16.8l5.169,5.824H6.3A5.162,5.162,0,0,1,11.464,10.993Z" transform="translate(42.81 12.216)" fill="#2f57e5"/>
    </g>
  </g>
</svg>
