<svg xmlns="http://www.w3.org/2000/svg" width="161.587" height="91.263" viewBox="0 0 150.587 81.263">
  <g id="Group_5933" data-name="Group 5933" transform="translate(-11231 371.58)">
    <path id="Fill_3" data-name="Fill 3" d="M6.366,0a6.366,6.366,0,1,0,0,12.732h7.391A6.366,6.366,0,0,0,13.758,0Z" transform="translate(11242.367 -320.652)" fill="#edeff7"/>
    <path id="Fill_5" data-name="Fill 5" d="M120.7.065A6.413,6.413,0,0,0,119.843,0H39.284a6.366,6.366,0,0,0,0,12.732h3.069v.007a6.36,6.36,0,0,1,0,12.717v.007H6.366a6.366,6.366,0,0,0,0,12.732H51.78V38.2a6.36,6.36,0,0,1,0,12.717v.007H50.37a6.366,6.366,0,1,0,0,12.732h69.473a6.414,6.414,0,0,0,.861-.065,31.825,31.825,0,0,0,0-63.531Z" transform="translate(11231 -371.58)" fill="#edeff7"/>
    <path id="Fill_28" data-name="Fill 28" d="M22.146,4.485H2.242A2.242,2.242,0,0,1,2.242,0h19.9a2.242,2.242,0,0,1,0,4.485" transform="translate(11339.084 -357.323)" fill="#fff"/>
    <g id="Group_6189" data-name="Group 6189" transform="translate(11263.592 -363.453)">
      <path id="Path_12510" data-name="Path 12510" d="M-835.431,1038.967c-.6.358-1.165.7-1.731,1.036-.336.2-.718.385-.963-.04s.1-.662.441-.861c.561-.328,1.114-.669,1.739-1.047a22.081,22.081,0,0,0-7.159-7.166c-.366.606-.722,1.192-1.072,1.782-.2.338-.445.664-.871.388-.385-.248-.227-.594-.031-.912.349-.568.686-1.143,1.055-1.762a21.437,21.437,0,0,0-9.788-2.626c0,.72-.007,1.364,0,2.01.005.359-.064.688-.488.7-.471.013-.536-.345-.535-.724,0-.669,0-1.337,0-2.081a21.435,21.435,0,0,0-9.778,2.615c.307.518.612.985.869,1.477.2.384.754.838.1,1.212s-.75-.363-.993-.7c-.324-.454-.585-.951-.9-1.471a22.161,22.161,0,0,0-7.159,7.147c.467.288.938.54,1.369.851.377.273,1.192.4.777,1.084-.393.651-.871.008-1.271-.189-.462-.225-.89-.518-1.387-.813a21.51,21.51,0,0,0-2.628,9.779c.608,0,1.182,0,1.754,0a1.208,1.208,0,0,1,.573.044c.172.107.4.383.362.5a.742.742,0,0,1-.517.439c-.729.051-1.463.021-2.267.021a21.393,21.393,0,0,0,2.619,9.793c.58-.344,1.119-.659,1.653-.98.341-.2.739-.484,1.019-.03.3.493-.148.724-.509.938-.537.32-1.072.644-1.651.993a22.133,22.133,0,0,0,7.166,7.162c.366-.609.715-1.2,1.07-1.78.2-.325.419-.679.864-.393.394.254.234.588.044.91-.32.539-.626,1.087-.959,1.668a21.379,21.379,0,0,0,10.051,2.641v5.184a26.612,26.612,0,0,1-24.614-16.719,26.605,26.605,0,0,1,8.371-30.9,26.6,26.6,0,0,1,32.164-.471,26.849,26.849,0,0,1,11.022,20.157l-4.234,0h-1.018A21.284,21.284,0,0,0-835.431,1038.967Z" transform="translate(881.093 -1022.495)" fill="#2f57e5"/>
      <g id="Group_6189-2" data-name="Group 6189" transform="translate(28.776 28.42)">
        <path id="Path_12511" data-name="Path 12511" d="M-648.971,1208.891a3.59,3.59,0,0,0-3.892-3.855q-1.929-.005-3.861,0l-5.264,0h-4.33c-.084-.156-.141-.213-.143-.271q-.024-2.031-.039-4.065c-.016-2.034-.9-2.943-2.9-2.945h-1.917q-2.663,0-5.327,0-2.33,0-4.661,0h-1.73c-2.227,0-3.07.853-3.073,3.07,0,1.375,0,2.75,0,4.212h-1.614q-3.427,0-6.855,0-2.552,0-5.1.006a3.667,3.667,0,0,0-3.958,3.921q-.029,3.153,0,6.307a7.439,7.439,0,0,0,7.756,7.747q2.345.007,4.69.007,3.608,0,7.213-.007c.328,0,.654-.034,1.046-.057,0-.352-.008-.618,0-.884a2.4,2.4,0,0,1,2.486-2.519q2.021-.022,4.044-.023,2.1,0,4.2.024a2.4,2.4,0,0,1,2.527,2.481c.015.3.037.589.058.926.323.021.587.052.851.053,2.528,0,5.056.015,7.585.015q2.311,0,4.625-.02a7.4,7.4,0,0,0,7.58-7.508C-648.929,1213.3-648.948,1211.094-648.971,1208.891Zm-19.115-3.788h-16.439c0-1.589,0-3.078,0-4.567,0-.654.259-1.025.955-1.025h0q2.875,0,5.75,0,2.338,0,4.674,0h1.8q1.155,0,2.313,0h0c.7,0,.952.383.95,1.03C-668.091,1202.033-668.086,1203.521-668.086,1205.1Z" transform="translate(703.651 -1197.748)" fill="#2f57e5"/>
      </g>
      <path id="Path_12512" data-name="Path 12512" d="M-703.6,1339.333a9.247,9.247,0,0,0,6.122,3.776,22.212,22.212,0,0,0,3.045.113c3.46.01,6.921,0,10.382,0h1.146c.086.152.15.211.146.266-.136,2.27.964,3.349,3.451,3.23,2.1-.1,4.206-.021,6.31-.021,2.805,0,3.38-.53,3.594-3.471h1.048c3.868,0,7.736-.026,11.6.008a8.829,8.829,0,0,0,7.47-3.423,2.05,2.05,0,0,1,.358-.243v1.082q0,8.091,0,16.181c0,2.876-1.372,4.254-4.233,4.255q-23.1,0-46.21,0c-2.861,0-4.229-1.38-4.231-4.254C-703.6,1351.1-703.6,1345.373-703.6,1339.333Z" transform="translate(732.381 -1287.952)" fill="#2f57e5"/>
      <path id="Path_12513" data-name="Path 12513" d="M-753.413,1116.654a2.845,2.845,0,0,1-3.358,2.747,1.116,1.116,0,0,0-.791.225c-1.718,1.359-3.413,2.747-5.117,4.125a1.48,1.48,0,0,1-.477.327.6.6,0,0,1-.514-.088.731.731,0,0,1-.088-.571c.045-.172.222-.313.348-.462,1.4-1.659,2.8-3.311,4.182-4.985a1.1,1.1,0,0,0,.239-.788,2.647,2.647,0,0,1,.947-2.679,1.523,1.523,0,0,0,.572-1.213c.22-3.094.463-6.186.7-9.278a1.165,1.165,0,0,1,.076-.508c.1-.158.3-.349.455-.352a.723.723,0,0,1,.469.335,1.111,1.111,0,0,1,.08.507c.237,3.114.478,6.228.7,9.343a1.427,1.427,0,0,0,.564,1.153A2.624,2.624,0,0,1-753.413,1116.654Z" transform="translate(782.804 -1090.074)" fill="#2f57e5"/>
      <path id="Path_12514" data-name="Path 12514" d="M-560.21,1347.427c-1.32,0-2.64-.022-3.959.009-.787.018-1.108-.334-1.1-1.093q.021-1.675,0-3.35c-.012-.768.33-1.1,1.105-1.092q3.959.029,7.918,0c.774,0,1.11.322,1.093,1.1-.025,1.15-.017,2.3-.005,3.451.007.685-.32.984-.991.98C-557.5,1347.42-558.857,1347.427-560.21,1347.427Z" transform="translate(616.487 -1290.104)" fill="#2f57e5"/>
    </g>
  </g>
</svg>
