<svg xmlns="http://www.w3.org/2000/svg" width="165" height="77.588" viewBox="0 0 165 77.588">
  <g id="new-bundles-vector" transform="translate(-11216 373.971)">
    <g id="Group_12498" data-name="Group 12498" transform="translate(-20 -3.244)">
      <path id="Fill_3" data-name="Fill 3" d="M6.976,0a6.975,6.975,0,1,0,0,13.951h8.1A6.975,6.975,0,0,0,15.075,0Z" transform="translate(11248.455 -307.09)" fill="#edeff7"/>
      <path id="Fill_5" data-name="Fill 5" d="M132.258.071A7.027,7.027,0,0,0,131.314,0H43.044a6.975,6.975,0,0,0,0,13.951h3.363v.008a6.969,6.969,0,0,1,0,13.935V27.9H6.975a6.975,6.975,0,0,0,0,13.951H56.736v.008a6.969,6.969,0,0,1,0,13.934V55.8H55.191a6.975,6.975,0,1,0,0,13.951h76.123a7.028,7.028,0,0,0,.943-.071,34.871,34.871,0,0,0,0-69.612Z" transform="translate(11236 -362.894)" fill="#edeff7"/>
      <path id="Fill_28" data-name="Fill 28" d="M27.622,5.594H2.8A2.8,2.8,0,0,1,2.8,0H27.622a2.8,2.8,0,1,1,0,5.594" transform="translate(11356.469 -345.111)" fill="#fff"/>
    </g>
    <g id="Group_6201" data-name="Group 6201" transform="translate(11346.77 -376.3)">
      <path id="Path_12526" data-name="Path 12526" d="M-38.832,25.61A23.385,23.385,0,0,0-62.22,49,23.385,23.385,0,0,0-38.832,72.387,23.393,23.393,0,0,0-15.443,49,23.393,23.393,0,0,0-38.832,25.61Zm9.158,32.624H-47.99A1.738,1.738,0,0,1-49.728,56.5a1.738,1.738,0,0,1,1.738-1.738h18.316A1.738,1.738,0,0,1-27.935,56.5,1.738,1.738,0,0,1-29.673,58.234Zm0-7.5H-47.99A1.738,1.738,0,0,1-49.728,49,1.738,1.738,0,0,1-47.99,47.26h18.316A1.738,1.738,0,0,1-27.935,49,1.738,1.738,0,0,1-29.673,50.737Zm0-7.5H-47.99A1.738,1.738,0,0,1-49.728,41.5a1.738,1.738,0,0,1,1.738-1.738h18.316A1.738,1.738,0,0,1-27.935,41.5,1.738,1.738,0,0,1-29.673,43.239Z" transform="translate(7.981 6.919)" fill="#2f57e5"/>
      <path id="Path_12527" data-name="Path 12527" d="M-80.607,35.079a3.788,3.788,0,0,0-2.172-2.194,3.646,3.646,0,0,0-.847-.095,3.726,3.726,0,0,0-2.479.9,3.438,3.438,0,0,0-.646,3.465,28.155,28.155,0,0,0,5.011,8.22A31.351,31.351,0,0,0-61.42,56.33a31.4,31.4,0,0,0,3.295.233,28,28,0,0,1-1.536-6.6A25.175,25.175,0,0,1-80.607,35.079Z" transform="translate(0.629 9.053)" fill="#4d5160"/>
      <path id="Path_12528" data-name="Path 12528" d="M-30.219,17.086A31.117,31.117,0,0,0-48.662,3.547a34.462,34.462,0,0,0-8.919-1.218c-8.2,0-15.647,3.262-22.142,9.715a28.685,28.685,0,0,0-5.392,7.48l-.074-.074c-.01,0-.021-.021-.032-.032-.275-.192-1.144-.9-2.7-2.226l-.022-.021a.753.753,0,0,0-.593-.084.417.417,0,0,0-.127.053.754.754,0,0,0-.4.572.517.517,0,0,0,0,.18l.349,2.6,1.271,9.407.18,1.3a1.312,1.312,0,0,0,.7,1.027,1.254,1.254,0,0,0,.158.084l.053.031a1.275,1.275,0,0,0,.392.1,1.468,1.468,0,0,0,1.007-.3l2.786-2.182,6.579-5.138,1.218-.953a.763.763,0,0,0,.18-.943.738.738,0,0,0-.488-.339l-.031-.01c-1.97-.148-3.135-.244-3.486-.3,0,0-.18,0-.488-.021-.137-.01-.3-.021-.488-.043a21.34,21.34,0,0,1,2.489-3.75c5.213-6.346,11.855-9.556,19.759-9.556.689,0,1.409.021,2.118.074,10.3.7,19.419,8.475,22.078,18.656.625-.043,1.25-.064,1.886-.064A27.287,27.287,0,0,1-25.969,28,31.423,31.423,0,0,0-30.219,17.086Z" transform="translate(0 0)" fill="#4d5160"/>
      <path id="Path_12529" data-name="Path 12529" d="M-58.027,27.3-58.8,14.636a2.746,2.746,0,0,0-2.744-2.712,2.751,2.751,0,0,0-2.744,2.712L-65.061,27.3a6.185,6.185,0,0,0-2.616,5.021,6.475,6.475,0,0,0,.064.9l-6.071,6.875a2.733,2.733,0,0,0-.847,1.876,2.708,2.708,0,0,0,.72,1.97,2.775,2.775,0,0,0,2.024.89,2.736,2.736,0,0,0,1.823-.7l7.066-5.817a6.524,6.524,0,0,0,1.356.148,6.115,6.115,0,0,0,2.373-.477A6.151,6.151,0,0,0-55.485,33.3a5.956,5.956,0,0,0,.084-.986A6.162,6.162,0,0,0-58.027,27.3ZM-61.544,35a2.683,2.683,0,0,1-2.68-2.68,2.681,2.681,0,0,1,2.68-2.67,2.675,2.675,0,0,1,2.68,2.67A2.677,2.677,0,0,1-61.544,35Z" transform="translate(4.321 2.852)" fill="#4d5160"/>
    </g>
  </g>
</svg>
