<svg xmlns="http://www.w3.org/2000/svg" xmlns:xlink="http://www.w3.org/1999/xlink" width="164" height="110.233" viewBox="0 0 164 110.233">
  <defs>
    <linearGradient id="linear-gradient" x1="0.534" y1="-0.057" x2="0.483" y2="1.04" gradientUnits="objectBoundingBox">
      <stop offset="0" stop-color="#ffc444"/>
      <stop offset="0.81" stop-color="#f36f56"/>
    </linearGradient>
    <linearGradient id="linear-gradient-2" x1="0.378" y1="1.27" x2="0.565" y2="-0.04" xlink:href="#linear-gradient"/>
    <linearGradient id="linear-gradient-3" x1="0.534" y1="-0.048" x2="0.483" y2="1.048" xlink:href="#linear-gradient"/>
    <linearGradient id="linear-gradient-4" x1="0.521" y1="2.038" x2="0.503" y2="0.708" gradientUnits="objectBoundingBox">
      <stop offset="0" stop-color="#2f57e5"/>
      <stop offset="0.996" stop-color="#7398ff"/>
    </linearGradient>
    <linearGradient id="linear-gradient-5" x1="0.497" y1="0.135" x2="0.52" y2="2.743" xlink:href="#linear-gradient-4"/>
    <linearGradient id="linear-gradient-6" x1="0.424" y1="0.489" x2="1.198" y2="0.537" xlink:href="#linear-gradient"/>
    <linearGradient id="linear-gradient-7" x1="0" y1="0.5" x2="1" y2="0.5" xlink:href="#linear-gradient"/>
    <linearGradient id="linear-gradient-8" x1="1.214" y1="0.17" x2="-1.054" y2="1.218" xlink:href="#linear-gradient"/>
    <linearGradient id="linear-gradient-9" x1="0.453" y1="2.55" x2="0.494" y2="0.97" xlink:href="#linear-gradient-4"/>
    <linearGradient id="linear-gradient-10" x1="0.504" y1="2.161" x2="0.501" y2="0.796" xlink:href="#linear-gradient-4"/>
    <linearGradient id="linear-gradient-11" x1="0.165" y1="13.287" x2="0.603" y2="-3.428" xlink:href="#linear-gradient-4"/>
    <linearGradient id="linear-gradient-12" x1="0.233" y1="1.325" x2="-0.253" y2="2.828" xlink:href="#linear-gradient-4"/>
    <linearGradient id="linear-gradient-13" x1="0.503" y1="0.486" x2="0.408" y2="0.957" xlink:href="#linear-gradient-4"/>
    <linearGradient id="linear-gradient-14" x1="0.292" y1="2.007" x2="0.456" y2="0.821" xlink:href="#linear-gradient-4"/>
  </defs>
  <g id="no-courses-yet-icon" transform="translate(-0.427)">
    <g id="Group_6286" data-name="Group 6286" transform="translate(0.427 40.902)">
      <g id="Group_5933" data-name="Group 5933" transform="translate(0)">
        <path id="Fill_3" data-name="Fill 3" d="M6.933,0a6.933,6.933,0,1,0,0,13.866h8.05A6.933,6.933,0,0,0,14.983,0Z" transform="translate(12.379 55.465)" fill="#edeff7"/>
        <path id="Fill_5" data-name="Fill 5" d="M131.456.071A6.985,6.985,0,0,0,130.518,0H42.783a6.933,6.933,0,0,0,0,13.866h3.342v.008a6.927,6.927,0,0,1,0,13.85v.008H6.933a6.933,6.933,0,0,0,0,13.866H56.392v.008a6.927,6.927,0,0,1,0,13.85v.008H54.857a6.933,6.933,0,1,0,0,13.866h75.662a6.985,6.985,0,0,0,.938-.071,34.659,34.659,0,0,0,0-69.189Z" transform="translate(0)" fill="#edeff7"/>
        <path id="Fill_28" data-name="Fill 28" d="M24.119,4.884H2.442A2.442,2.442,0,0,1,2.442,0H24.119a2.442,2.442,0,1,1,0,4.884" transform="translate(117.711 15.527)" fill="#fff"/>
      </g>
    </g>
    <g id="Group_11994" data-name="Group 11994" transform="translate(119.139 0)">
      <g id="Group_11989" data-name="Group 11989" transform="translate(8.325 23.604)">
        <rect id="Rectangle_2573" data-name="Rectangle 2573" width="0.15" height="2.773" transform="translate(0 0.054) rotate(-21.125)" fill="#fff"/>
      </g>
      <g id="Group_11990" data-name="Group 11990" transform="translate(10.417 23.604)">
        <rect id="Rectangle_2574" data-name="Rectangle 2574" width="2.773" height="0.15" transform="translate(0 2.587) rotate(-68.875)" fill="#fff"/>
      </g>
      <g id="Group_11991" data-name="Group 11991" transform="translate(9.881 23.901)">
        <rect id="Rectangle_2575" data-name="Rectangle 2575" width="0.15" height="2.317" fill="#fff"/>
      </g>
      <g id="Group_11992" data-name="Group 11992" transform="translate(0 0)">
        <path id="Path_18412" data-name="Path 18412" d="M1397.33,1810.547v23.875h-2s-10.5-10.279-8-17.477a9.07,9.07,0,0,1,6.942-6.166h0a11.524,11.524,0,0,1,1.955-.249A8.25,8.25,0,0,1,1397.33,1810.547Z" transform="translate(-1386.948 -1810.521)" fill="#fff"/>
        <path id="Path_18413" data-name="Path 18413" d="M1395.8,1835.531h-.472s-10.5-10.279-8-17.477a9.07,9.07,0,0,1,6.942-6.166C1385.674,1820.592,1395.8,1835.531,1395.8,1835.531Z" transform="translate(-1386.948 -1811.63)" fill="url(#linear-gradient)"/>
      </g>
      <g id="Group_11993" data-name="Group 11993" transform="translate(7.327)">
        <path id="Path_18414" data-name="Path 18414" d="M1437.355,1810.547v23.875h2s10.5-10.279,8-17.477a9.069,9.069,0,0,0-6.942-6.166h0a11.527,11.527,0,0,0-1.955-.249A8.25,8.25,0,0,0,1437.355,1810.547Z" transform="translate(-1435.15 -1810.521)" fill="#fff"/>
        <path id="Path_18415" data-name="Path 18415" d="M1429,1810.53c-.269-.011-.5-.01-.675-.006s-.406-.005-.675.006c-4.4,8.48,0,23.892,0,23.892H1429S1433.4,1819.01,1429,1810.53Z" transform="translate(-1425.695 -1810.521)" fill="url(#linear-gradient-2)"/>
        <path id="Path_18416" data-name="Path 18416" d="M1445.431,1835.531h.472s10.5-10.279,8-17.477a9.069,9.069,0,0,0-6.942-6.166C1455.56,1820.592,1445.431,1835.531,1445.431,1835.531Z" transform="translate(-1441.699 -1811.63)" fill="url(#linear-gradient-3)"/>
      </g>
      <rect id="Rectangle_2576" data-name="Rectangle 2576" width="2.06" height="1.306" transform="translate(8.927 25.609)" fill="url(#linear-gradient-4)"/>
      <rect id="Rectangle_2577" data-name="Rectangle 2577" width="2.205" height="1.1" transform="translate(8.854 26.218)" fill="url(#linear-gradient-5)"/>
    </g>
    <g id="Group_12033" data-name="Group 12033" transform="translate(41.18 16.083)">
      <g id="Group_12032" data-name="Group 12032" transform="translate(0 0)">
        <g id="Group_12026" data-name="Group 12026" transform="translate(0 32.911)">
          <g id="Group_12013" data-name="Group 12013" transform="translate(7.689 40.826)">
            <g id="Group_12008" data-name="Group 12008" transform="translate(3.976 3.976)">
              <path id="Path_18442" data-name="Path 18442" d="M1893.389,3040.917h-39.976a6.234,6.234,0,0,1-5.355-3.049,6.234,6.234,0,0,1-.875-3.181,6.257,6.257,0,0,1,.051-.8,6.172,6.172,0,0,1,.542-1.856,6.239,6.239,0,0,1,5.637-3.579h39.83a10.55,10.55,0,0,0-1.786,3.579,9.059,9.059,0,0,0-.3,1.856,9.387,9.387,0,0,0,.13,2.121,10.9,10.9,0,0,0,.5,1.855A13.73,13.73,0,0,0,1893.389,3040.917Z" transform="translate(-1847.183 -3028.457)" fill="#ffe065"/>
            </g>
            <g id="Group_12010" data-name="Group 12010">
              <g id="Group_12009" data-name="Group 12009">
                <path id="Path_18443" data-name="Path 18443" d="M1826.146,3012.8a6.27,6.27,0,0,0-.051.795,6.254,6.254,0,0,0,.876,3.181,6.233,6.233,0,0,0,5.355,3.049H1872.3a13.416,13.416,0,0,0,1.646,1.989v1.988h-41.621a10.206,10.206,0,1,1,0-20.413h41.621v1.988a15.093,15.093,0,0,0-1.792,1.989h-39.829a6.235,6.235,0,0,0-6.18,5.435Z" transform="translate(-1822.12 -3003.39)" fill="url(#linear-gradient-6)"/>
              </g>
            </g>
            <g id="Group_12011" data-name="Group 12011" transform="translate(4.026 7.555)">
              <path id="Path_18444" data-name="Path 18444" d="M1891.725,3051.017a9.079,9.079,0,0,0-.3,1.856H1847.5a6.179,6.179,0,0,1,.542-1.856Z" transform="translate(-1847.501 -3051.017)" fill="url(#linear-gradient-7)"/>
            </g>
            <g id="Group_12012" data-name="Group 12012" transform="translate(4.119 11.532)">
              <path id="Path_18445" data-name="Path 18445" d="M1892.55,3077.941h-43.732a6.142,6.142,0,0,1-.732-1.856h43.964A10.869,10.869,0,0,0,1892.55,3077.941Z" transform="translate(-1848.086 -3076.085)" fill="url(#linear-gradient-8)"/>
            </g>
          </g>
          <g id="Group_12019" data-name="Group 12019" transform="translate(5.303)">
            <g id="Group_12014" data-name="Group 12014" transform="translate(3.976 3.976)">
              <path id="Path_18446" data-name="Path 18446" d="M1878.349,2783.554h-39.976a6.234,6.234,0,0,1-5.355-3.048,6.235,6.235,0,0,1-.875-3.181,6.27,6.27,0,0,1,.051-.8,6.173,6.173,0,0,1,.542-1.856,6.239,6.239,0,0,1,5.637-3.579h39.83a10.546,10.546,0,0,0-1.785,3.579,9.052,9.052,0,0,0-.3,1.856,9.371,9.371,0,0,0,.13,2.121,10.883,10.883,0,0,0,.5,1.856A13.723,13.723,0,0,0,1878.349,2783.554Z" transform="translate(-1832.143 -2771.094)" fill="#fff"/>
            </g>
            <g id="Group_12016" data-name="Group 12016">
              <g id="Group_12015" data-name="Group 12015">
                <path id="Path_18447" data-name="Path 18447" d="M1811.106,2755.44a6.31,6.31,0,0,0-.051.8,6.259,6.259,0,0,0,.875,3.181,6.234,6.234,0,0,0,5.355,3.049h39.975a13.329,13.329,0,0,0,1.647,1.988v1.989h-41.621a10.207,10.207,0,0,1,0-20.414h41.621v1.988a15.213,15.213,0,0,0-1.793,1.988h-39.829a6.235,6.235,0,0,0-6.18,5.435Z" transform="translate(-1807.08 -2746.03)" fill="url(#linear-gradient-9)"/>
              </g>
            </g>
            <g id="Group_12017" data-name="Group 12017" transform="translate(4.026 7.555)">
              <path id="Path_18448" data-name="Path 18448" d="M1876.684,2793.655a9.059,9.059,0,0,0-.3,1.856H1832.46a6.193,6.193,0,0,1,.542-1.856Z" transform="translate(-1832.46 -2793.655)" fill="#bce0f3"/>
            </g>
            <g id="Group_12018" data-name="Group 12018" transform="translate(4.119 11.532)">
              <path id="Path_18449" data-name="Path 18449" d="M1877.509,2820.579h-43.732a6.143,6.143,0,0,1-.732-1.856h43.964A10.84,10.84,0,0,0,1877.509,2820.579Z" transform="translate(-1833.045 -2818.723)" fill="#bce0f3"/>
            </g>
          </g>
          <g id="Group_12025" data-name="Group 12025" transform="translate(0 20.413)">
            <g id="Group_12020" data-name="Group 12020" transform="translate(3.977 3.976)">
              <path id="Path_18450" data-name="Path 18450" d="M1856.855,2912.235h-51.906a6.233,6.233,0,0,1-5.355-3.049,6.227,6.227,0,0,1-.875-3.181,6.339,6.339,0,0,1,.05-.8,6.173,6.173,0,0,1,.542-1.856,6.239,6.239,0,0,1,5.638-3.579h51.76a10.553,10.553,0,0,0-1.786,3.579,9.062,9.062,0,0,0-.3,1.856,9.38,9.38,0,0,0,.13,2.121,10.86,10.86,0,0,0,.5,1.855A13.75,13.75,0,0,0,1856.855,2912.235Z" transform="translate(-1798.719 -2899.775)" fill="#fff"/>
            </g>
            <g id="Group_12022" data-name="Group 12022">
              <g id="Group_12021" data-name="Group 12021">
                <path id="Path_18451" data-name="Path 18451" d="M1777.678,2884.12a6.32,6.32,0,0,0-.051.8,6.232,6.232,0,0,0,6.23,6.23h51.906a13.309,13.309,0,0,0,1.647,1.988v1.989h-53.552a10.207,10.207,0,1,1,0-20.413h53.552v1.988a15.208,15.208,0,0,0-1.793,1.988h-51.759a6.243,6.243,0,0,0-5.638,3.581A6.147,6.147,0,0,0,1777.678,2884.12Z" transform="translate(-1773.65 -2874.71)" fill="url(#linear-gradient-10)"/>
              </g>
            </g>
            <g id="Group_12023" data-name="Group 12023" transform="translate(4.027 7.555)">
              <path id="Path_18452" data-name="Path 18452" d="M1855.191,2922.336a9.081,9.081,0,0,0-.3,1.856h-55.857a6.183,6.183,0,0,1,.542-1.856Z" transform="translate(-1799.037 -2922.336)" fill="#8ec3e0"/>
            </g>
            <g id="Group_12024" data-name="Group 12024" transform="translate(4.12 11.532)">
              <path id="Path_18453" data-name="Path 18453" d="M1856.016,2949.26h-55.662a6.136,6.136,0,0,1-.732-1.855h55.894A10.843,10.843,0,0,0,1856.016,2949.26Z" transform="translate(-1799.622 -2947.404)" fill="#8ec3e0"/>
            </g>
          </g>
        </g>
        <g id="Group_12031" data-name="Group 12031" transform="translate(15.111 4.132)">
          <g id="Group_12027" data-name="Group 12027" transform="translate(53.522 19.292)">
            <rect id="Rectangle_2584" data-name="Rectangle 2584" width="14.504" height="1.456" transform="matrix(0.313, -0.95, 0.95, 0.313, 0, 13.777)" fill="url(#linear-gradient-11)"/>
          </g>
          <g id="Group_12028" data-name="Group 12028" transform="translate(51.794 30.878)">
            <ellipse id="Ellipse_241" data-name="Ellipse 241" cx="2.392" cy="2.392" rx="2.392" ry="2.392" transform="translate(0 4.784) rotate(-89.364)" fill="url(#linear-gradient-12)"/>
          </g>
          <g id="Group_12029" data-name="Group 12029" transform="translate(2.602 7.532)">
            <path id="Path_18454" data-name="Path 18454" d="M1892.5,2627.726c-15.955-.62-26.914-3.494-40.724-13.4,0,0,6.98-21.223,6.98-21.223l40.766,13.417S1892.54,2627.728,1892.5,2627.726Z" transform="translate(-1851.777 -2593.099)" fill="url(#linear-gradient-13)"/>
          </g>
          <g id="Group_12030" data-name="Group 12030">
            <path id="Path_18455" data-name="Path 18455" d="M1832.939,2540.013l35.578-1.444,27.766,22.292L1860.7,2562.3Z" transform="translate(-1832.939 -2538.569)" fill="url(#linear-gradient-14)"/>
          </g>
        </g>
      </g>
    </g>
  </g>
</svg>
