<svg xmlns="http://www.w3.org/2000/svg" xmlns:xlink="http://www.w3.org/1999/xlink" width="100.435" height="158.561" viewBox="0 0 119.435 177.561">
  <defs>
    <linearGradient id="linear-gradient" x1="0.5" x2="0.5" y2="1" gradientUnits="objectBoundingBox">
      <stop offset="0" stop-color="#ffc444"/>
      <stop offset="0.996" stop-color="#f36f56"/>
    </linearGradient>
    <linearGradient id="linear-gradient-2" x1="4.168" y1="3.007" x2="8.712" y2="6.074" gradientUnits="objectBoundingBox">
      <stop offset="0" stop-color="#2f57e5"/>
      <stop offset="0.996" stop-color="#7398ff"/>
    </linearGradient>
  </defs>
  <g id="plant-right-vector" transform="translate(0 0)">
    <g id="Group_5703" data-name="Group 5703" transform="translate(69.75 11.657)">
      <path id="Path_18722" data-name="Path 18722" d="M22.517,106.252c-1.187,2.922-1.34,6.125,1.238,10.26,6.049,10.362,14.969,19.205,8.1,27.806a33.031,33.031,0,0,0-2.5,3.445,1.1,1.1,0,0,0-.128.2c-4.53,7.287-4.671,14.93,1.761,26.288q4.211.632,8.435,1.187a1.405,1.405,0,0,0,.23.026c3.777.5,7.554.944,11.357,1.34.077.115,5.577-11.421,2.718-20.481-.026-.077-.051-.14-.077-.217a14.529,14.529,0,0,0-.638-1.608c-8.69-17.98,3.879-27.921,8.639-34.621a30.9,30.9,0,0,0,3.484-5.679c.23-.5.447-1,.651-1.48.23-.613.447-1.225.638-1.825.077-.242.14-.472.2-.7a14.192,14.192,0,0,0-.268-9.3,1.555,1.555,0,0,0-.089-.217,6.534,6.534,0,0,0-.345-.664,3.224,3.224,0,0,0-.166-.281c-1.4-2-3.79-3.382-7.389-3.713-8.626-1-8.205-13.731-4.5-27.245a98.207,98.207,0,0,1,5.347-15.211,16.162,16.162,0,0,0,1.468-9.3c-.013-.064-.013-.128-.026-.191-.753-6.278-4.249-12.723-8.818-16.155l-.179-.14-.613-.421c-7.414-5.13-17.189-2.412-24.96,13.3-.038.089-.089.179-.128.281-.128.242-.242.485-.357.727-10,18.937,1,35.552,3.356,47.279,1.493,7.4-4.1,11.791-6.355,17.112A.987.987,0,0,1,22.517,106.252Z" transform="translate(-21.471 -24.991)" fill="url(#linear-gradient)"/>
      <path id="Path_18723" data-name="Path 18723" d="M33.568,174.84a1.405,1.405,0,0,0,.23.026c.077-.957.14-1.927.217-2.884v-.013c.026-.319.038-.638.064-.957.153-2.131.281-4.262.4-6.393,0-.064.013-.14.013-.2q.8-14.7.676-29.427c.013-.357,0-.715,0-1.059V133.9q-.038-4.364-.191-8.729h.013c0-.013-.013-.026-.013-.038q-.134-5.264-.408-10.515c-.051-5.015-.217-10.119-.383-15.045-.408-12.225-.8-24.846.536-36.918.013-.166.026-.332.051-.5v-.013c.089-.778.191-1.57.293-2.348,1.672-12.353,5.258-23.046,10.923-32.489l-.179-.14c-5.691,9.469-9.29,20.188-10.974,32.6-.613,4.568-.957,9.213-1.136,13.909,0,.14,0,.293-.013.434-.281,8.473,0,17.061.268,25.471.166,4.926.332,10.017.383,15.045.166,3.216.293,6.419.383,9.635.013.294.026.587.026.881q.555,18.835-.4,37.658v.026c-.038.523-.064,1.034-.089,1.557q-.211,3.771-.472,7.542v.064C33.721,172.939,33.644,173.9,33.568,174.84Z" transform="translate(-15.614 -24.39)" fill="#fcfdfe"/>
      <path id="Path_18724" data-name="Path 18724" d="M43.066,37.541c.281.766.6,1.633.944,2.565,2.769,7.414,7.912,21.209,12.608,31.239l.026-.013.179-.077c-.051-.115-.115-.242-.166-.357-4.645-9.992-9.7-23.557-12.429-30.869-.421-1.123-.753-2.042-1.034-2.769C43.155,37.349,43.1,37.439,43.066,37.541Z" transform="translate(-38.575 -21.604)" fill="#fcfdfe"/>
      <path id="Path_18725" data-name="Path 18725" d="M26.636,59.056l.153.077.051.026A39.062,39.062,0,0,1,40.482,43.245,27.168,27.168,0,0,1,46.9,40.131c-.013-.064-.013-.128-.026-.191A23.686,23.686,0,0,0,39.7,43.488,39.909,39.909,0,0,0,26.84,58.635C26.764,58.775,26.7,58.916,26.636,59.056Z" transform="translate(-7.687 -20.864)" fill="#fcfdfe"/>
      <path id="Path_18726" data-name="Path 18726" d="M22.156,119.179l.217.038h.013c1.544-8.7,6.253-17.138,13.986-25.075A80.789,80.789,0,0,1,47.716,84.52c.013-.013.026-.026.038-.026a.512.512,0,0,0-.1-.2c-.013,0-.013.013-.026.013a81.913,81.913,0,0,0-11.421,9.673c-7.452,7.657-12.1,15.773-13.833,24.157C22.284,118.477,22.22,118.834,22.156,119.179Z" transform="translate(-2.824 -8.619)" fill="#fcfdfe"/>
      <path id="Path_12076" data-name="Path 12076" d="M42.279,88.51A36.718,36.718,0,0,1,56.112,99.28c.077.115.166.217.242.332a25.669,25.669,0,0,1,3.892,7.72c.1.281.179.574.255.868,0,.013.013.026.013.038H60.5l-.2.051c-.013-.026-.013-.051-.026-.077a25.539,25.539,0,0,0-4.007-8.333,2.007,2.007,0,0,0-.242-.332A32.262,32.262,0,0,0,49.157,92.8a38.772,38.772,0,0,0-6.967-4.084A.987.987,0,0,0,42.279,88.51Z" transform="translate(-41.15 -7.454)" fill="#fcfdfe"/>
      <path id="Path_18727" data-name="Path 18727" d="M32.086,144.227H32.1l.2.064c.013-.026.013-.051.026-.077V144.2c1.008-3.7,4.237-9.507,13.858-16.245-.026-.077-.051-.14-.077-.217-.013.013-.026.013-.038.026-8.945,6.266-12.4,11.74-13.68,15.479-.115.332-.217.638-.293.932v.026C32.086,144.214,32.086,144.214,32.086,144.227Z" transform="translate(-13.928 3.378)" fill="#fcfdfe"/>
      <path id="Path_18728" data-name="Path 18728" d="M42.576,121.4c9.29,8.167,10.86,14.05,10.885,17.023v.23h.23v-.2a10.948,10.948,0,0,0-.14-1.582v-.025c-.561-3.28-2.909-8.639-10.847-15.645A1.1,1.1,0,0,0,42.576,121.4Z" transform="translate(-34.818 1.572)" fill="#fcfdfe"/>
    </g>
    <g id="Group_5701" data-name="Group 5701" transform="translate(0 0)">
      <path id="Path_18729" data-name="Path 18729" d="M18.435,50.009v.447c0,.4.013.791.026,1.187-.485,31.379,24.884,45.774,35.782,59.53,6.878,8.677,2.476,18.133,3.063,26.581a2.687,2.687,0,0,1,.026.319c.4,4.594,2.322,8.894,8.422,12.582,14.79,9.52,32.3,15.135,29.044,30.945a51.216,51.216,0,0,0-1,6.176,2.9,2.9,0,0,1-.026.332,35.279,35.279,0,0,0-.077,5.309h44.166a31.053,31.053,0,0,0-6.534-10.643,2.063,2.063,0,0,0-.23-.242,21.46,21.46,0,0,0-1.9-1.672,49.367,49.367,0,0,1-4.862-4.211c-.306-.306-.613-.613-.906-.919s-.587-.625-.868-.944c-.37-.421-.74-.842-1.1-1.276-.408-.5-.791-1.008-1.161-1.531-.574-.753-1.1-1.531-1.6-2.335-.23-.357-.447-.727-.651-1.1s-.4-.715-.587-1.072c-.2-.408-.4-.817-.587-1.225s-.357-.791-.523-1.187c-.2-.5-.4-1.008-.574-1.519-.1-.293-.191-.574-.268-.868a.811.811,0,0,1-.077-.23c-2.552-8.448-.957-17.406.7-25.981l.345-1.761c1.021-5.245,1.991-11.574,1.519-17.534-.013-.115-.013-.217-.026-.319-.051-.536-.1-1.046-.179-1.57a.249.249,0,0,1-.013-.089,23.654,23.654,0,0,0-2.667-8.333l-.038-.077a17.362,17.362,0,0,0-4.032-4.811,2.349,2.349,0,0,0-.281-.217c-.281-.23-.561-.447-.868-.651a10.979,10.979,0,0,0-3.254-1.289c-.077-.026-.153-.038-.23-.064a15.758,15.758,0,0,0-9.06,1.148,11.37,11.37,0,0,1-4.007.829c-9.6.051-15.007-14.548-17.636-23.9-.14-.447-.255-.893-.37-1.314-.077-.281-.153-.549-.217-.817a5.51,5.51,0,0,1-.153-.574q-.23-.88-.421-1.646c-.026-.115-.051-.217-.077-.332-.14-.574-.281-1.148-.408-1.736-1.442-6.623-2.182-13.9-3.343-20.954-1.059-6.521-2.476-12.838-5.143-18.274-.051-.1-.1-.217-.153-.332a33.067,33.067,0,0,0-2.208-3.739c-3.867-5.666-9.7-9.915-18.81-11.689-.268-.064-.536-.115-.8-.166-.115-.026-.217-.038-.319-.051-.37-.064-.727-.115-1.085-.153C29.116,14.291,18.155,24.321,18.435,50.009Z" transform="translate(-18.43 -15.857)" fill="url(#linear-gradient-2)"/>
      <path id="Path_18730" data-name="Path 18730" d="M43.7,66c2.22,6.38,4.875,12.684,7.771,18.937.077.179.166.37.268.561,5.232,11.255,11.306,22.281,17.24,33.089,3.484,6.329,7.082,12.889,10.49,19.409,2.335,4.084,4.645,8.18,6.891,12.314l.013.013c.217.383.421.766.625,1.148l.013.013c.242.434.472.868.7,1.314q6.068,11.159,11.7,22.549a4.058,4.058,0,0,1,.2.408c.383.766.766,1.544,1.136,2.322q3.733,7.58,7.248,15.262h.383q-3.522-7.657-7.235-15.224c-.485-1.008-.983-2-1.48-3,0-.013,0-.026-.026-.026a3.254,3.254,0,0,0-.14-.306.32.32,0,0,0-.051-.089q-2.642-5.36-5.4-10.655h-.013c-.217-.459-.459-.906-.7-1.353,0-.013-.013-.038-.013-.051-1.787-3.42-3.586-6.814-5.436-10.2-.191-.37-.383-.727-.587-1.1a.279.279,0,0,0-.038-.064l-.013-.013c-2.437-4.5-4.951-8.984-7.5-13.425-3.394-6.521-6.993-13.08-10.477-19.409-8.639-15.709-17.559-31.928-23.825-48.581-.089-.217-.166-.434-.255-.651V69.19c-.408-1.1-.8-2.208-1.187-3.305-6.01-17.266-8.422-33.612-7.3-49.7-.115-.026-.217-.038-.319-.051C35.257,32.285,37.668,48.683,43.7,66Z" transform="translate(-11.529 -15.781)" fill="#fcfdfe"/>
      <path id="Path_18731" data-name="Path 18731" d="M80.378,42.62v.447c.893.817,1.889,1.735,2.961,2.718,8.524,7.848,24.412,22.447,37.211,32.438l.038-.038.166-.217c-.14-.115-.281-.23-.434-.345C107.61,67.644,92,53.288,83.555,45.542,82.267,44.355,81.233,43.4,80.378,42.62Z" transform="translate(-80.37 -8.467)" fill="#fcfdfe"/>
      <path id="Path_18732" data-name="Path 18732" d="M75.078,65.805v.013c0,.217.013.434.013.651h.332c-.191-14.024,3.841-23.991,7.261-29.873a39,39,0,0,1,5.883-7.874c-.051-.1-.1-.217-.153-.332a41.1,41.1,0,0,0-6.585,9.048A58.55,58.55,0,0,0,75.078,65.805Z" transform="translate(-41.406 -12.396)" fill="#fcfdfe"/>
      <path id="Path_18733" data-name="Path 18733" d="M41.472,144.191c.128.485.268.97.408,1.442l.306-.089H42.2c-3.752-12.4-3.2-26.556,1.621-42.047A116.76,116.76,0,0,1,52.28,83.4c-.013-.026,0-.038.026-.064a1.947,1.947,0,0,0-.281-.2.066.066,0,0,0-.026.051,119.516,119.516,0,0,0-8.5,20.213C38.856,118.35,38.167,132.068,41.472,144.191Z" transform="translate(40.346 2.717)" fill="#fcfdfe"/>
      <path id="Path_12068" data-name="Path 12068" d="M88.59,124.026l.013.013c.306.306.587.613.881.944L89.5,125l.051.051-.013.013-.23.217a.339.339,0,0,1-.064-.077l-.013-.013c-10.655-11.868-26.2-13.527-34.059-13.527-.957,0-1.812.026-2.514.051a2.686,2.686,0,0,0-.026-.319C59.062,111.086,76.633,111.609,88.59,124.026Z" transform="translate(-13.755 10.505)" fill="#fcfdfe"/>
      <path id="Path_18734" data-name="Path 18734" d="M28.437,146.534a84.452,84.452,0,0,0-4.887,10.821h.357a82.484,82.484,0,0,1,4.8-10.643,2.061,2.061,0,0,0-.23-.242C28.463,146.5,28.45,146.508,28.437,146.534Z" transform="translate(84.196 20.205)" fill="#fcfdfe"/>
      <path id="Path_18735" data-name="Path 18735" d="M41.07,150.912a67.633,67.633,0,0,1,14.471,5.309h.727A66.566,66.566,0,0,0,41.1,150.58,2.907,2.907,0,0,1,41.07,150.912Z" transform="translate(34.276 21.34)" fill="#fcfdfe"/>
    </g>
  </g>
</svg>
