<svg id="planet-right" xmlns="http://www.w3.org/2000/svg" xmlns:xlink="http://www.w3.org/1999/xlink" width="71.47" height="106.252" viewBox="0 0 71.47 106.252">
          <defs>
          <linearGradient id="linear-gradient" x1="0.5" x2="0.5" y2="1" gradientUnits="objectBoundingBox">
          <stop offset="0" stop-color="#ffc444"/>
          <stop offset="0.996" stop-color="#f36f56"/>
          </linearGradient>
          <linearGradient id="linear-gradient-2" x1="-3.168" y1="3.007" x2="-7.712" y2="6.074" gradientUnits="objectBoundingBox">
          <stop offset="0" stop-color="#2f57e5"/>
          <stop offset="0.996" stop-color="#7398ff"/>
          </linearGradient>
          </defs>
          <g id="plant-vector" transform="translate(-18.43 -15.857)">
          <g id="Group_5703" data-name="Group 5703" transform="translate(20.752 22.832)">
          <path id="Path_18722" data-name="Path 18722" d="M48.255,73.617a6.259,6.259,0,0,1-.741,6.139c-3.62,6.2-8.957,11.492-4.849,16.639a19.766,19.766,0,0,1,1.5,2.062.66.66,0,0,1,.076.122c2.711,4.36,2.795,8.934-1.054,15.73q-2.52.378-5.047.71a.841.841,0,0,1-.137.015c-2.26.3-4.521.565-6.8.8-.046.069-3.337-6.834-1.626-12.256.015-.046.031-.084.046-.13a8.693,8.693,0,0,1,.382-.962c5.2-10.759-2.321-16.708-5.17-20.717a18.491,18.491,0,0,1-2.085-3.4c-.137-.3-.267-.6-.389-.886-.137-.367-.267-.733-.382-1.092-.046-.145-.084-.283-.122-.42a8.493,8.493,0,0,1,.16-5.567.931.931,0,0,1,.053-.13,3.912,3.912,0,0,1,.206-.4,1.931,1.931,0,0,1,.1-.168A5.72,5.72,0,0,1,26.8,67.493c5.162-.6,4.91-8.216,2.7-16.3a58.767,58.767,0,0,0-3.2-9.1,9.671,9.671,0,0,1-.878-5.567c.008-.038.008-.076.015-.115a14.857,14.857,0,0,1,5.277-9.667l.107-.084.367-.252c4.437-3.07,10.286-1.443,14.936,7.957.023.053.053.107.076.168.076.145.145.29.214.435,5.987,11.332-.6,21.274-2.008,28.292-.893,4.429,2.451,7.056,3.8,10.24A.591.591,0,0,0,48.255,73.617Z" transform="translate(-21.471 -24.991)" fill="url(#linear-gradient)"/>
          <path id="Path_18723" data-name="Path 18723" d="M41,115.535a.841.841,0,0,1-.137.015c-.046-.573-.084-1.153-.13-1.726v-.008c-.015-.191-.023-.382-.038-.573-.092-1.275-.168-2.55-.237-3.826,0-.038-.008-.084-.008-.122q-.481-8.8-.4-17.609c-.008-.214,0-.428,0-.634v-.015q.023-2.612.115-5.223h-.008c0-.008.008-.015.008-.023q.08-3.15.244-6.292c.031-3,.13-6.055.229-9,.244-7.315.481-14.868-.321-22.091-.008-.1-.015-.2-.031-.3V48.1c-.053-.466-.115-.939-.176-1.405a50.2,50.2,0,0,0-6.537-19.442l.107-.084A50.3,50.3,0,0,1,40.24,46.68c.367,2.734.573,5.513.68,8.323,0,.084,0,.176.008.26.168,5.07,0,10.21-.16,15.242-.1,2.948-.2,5.994-.229,9-.1,1.924-.176,3.841-.229,5.765-.008.176-.015.351-.015.527q-.332,11.271.237,22.534v.015c.023.313.038.619.053.932q.126,2.256.283,4.513v.038C40.9,114.4,40.95,114.97,41,115.535Z" transform="translate(-24.33 -25.506)" fill="#fcfdfe"/>
          <path id="Path_18724" data-name="Path 18724" d="M51.3,37.428c-.168.458-.359.977-.565,1.535C49.076,43.4,46,51.654,43.188,57.656l-.015-.008-.107-.046c.031-.069.069-.145.1-.214,2.78-5.979,5.8-14.1,7.438-18.472.252-.672.451-1.222.619-1.657C51.244,37.313,51.275,37.367,51.3,37.428Z" transform="translate(-26.576 -27.891)" fill="#fcfdfe"/>
          <path id="Path_18725" data-name="Path 18725" d="M38.762,51.379l-.092.046-.031.015a23.375,23.375,0,0,0-8.163-9.522,16.257,16.257,0,0,0-3.841-1.863c.008-.038.008-.076.015-.115a14.174,14.174,0,0,1,4.292,2.123,23.881,23.881,0,0,1,7.7,9.064C38.686,51.211,38.724,51.295,38.762,51.379Z" transform="translate(-22.692 -28.525)" fill="#fcfdfe"/>
          <path id="Path_18726" data-name="Path 18726" d="M37.474,105.167l-.13.023h-.008c-.924-5.208-3.742-10.255-8.369-15.005a48.344,48.344,0,0,0-6.789-5.758c-.008-.008-.015-.015-.023-.015a.306.306,0,0,1,.061-.122c.008,0,.008.008.015.008a49.016,49.016,0,0,1,6.834,5.788c4.459,4.582,7.239,9.438,8.278,14.455C37.4,104.747,37.436,104.961,37.474,105.167Z" transform="translate(-21.633 -39.009)" fill="#fcfdfe"/>
          <path id="Path_12076" data-name="Path 12076" d="M53.1,88.51a21.972,21.972,0,0,0-8.278,6.445c-.046.069-.1.13-.145.2a15.36,15.36,0,0,0-2.329,4.62c-.061.168-.107.344-.153.519,0,.008-.008.015-.008.023H42.2l.122.031c.008-.015.008-.031.015-.046a15.282,15.282,0,0,1,2.4-4.986,1.2,1.2,0,0,1,.145-.2,19.306,19.306,0,0,1,4.108-4.04,23.2,23.2,0,0,1,4.169-2.444A.591.591,0,0,1,53.1,88.51Z" transform="translate(-26.369 -40.006)" fill="#fcfdfe"/>
          <path id="Path_18727" data-name="Path 18727" d="M40.524,137.606h-.008l-.122.038c-.008-.015-.008-.031-.015-.046v-.008c-.6-2.214-2.535-5.689-8.293-9.721.015-.046.031-.084.046-.13.008.008.015.008.023.015,5.353,3.749,7.422,7.025,8.186,9.263.069.2.13.382.176.557v.015C40.524,137.6,40.524,137.6,40.524,137.606Z" transform="translate(-23.98 -49.28)" fill="#fcfdfe"/>
          <path id="Path_18728" data-name="Path 18728" d="M49.227,121.322c-5.559,4.887-6.5,8.407-6.514,10.187v.137h-.137v-.122a6.551,6.551,0,0,1,.084-.947v-.015c.336-1.962,1.741-5.17,6.491-9.362A.66.66,0,0,1,49.227,121.322Z" transform="translate(-26.46 -47.734)" fill="#fcfdfe"/>
          </g>
          <g id="Group_5701" data-name="Group 5701" transform="translate(18.43 15.857)">
          <path id="Path_18729" data-name="Path 18729" d="M89.9,36.293v.267c0,.237-.008.473-.015.71.29,18.777-14.89,27.391-21.412,35.623-4.116,5.193-1.481,10.851-1.833,15.906a1.608,1.608,0,0,0-.015.191c-.237,2.749-1.39,5.322-5.04,7.529-8.85,5.7-19.327,9.056-17.38,18.518a30.648,30.648,0,0,1,.6,3.7,1.738,1.738,0,0,0,.015.2,21.11,21.11,0,0,1,.046,3.177H18.43a18.582,18.582,0,0,1,3.91-6.369,1.235,1.235,0,0,1,.137-.145,12.845,12.845,0,0,1,1.138-1,29.542,29.542,0,0,0,2.909-2.52c.183-.183.367-.367.542-.55s.351-.374.519-.565c.221-.252.443-.5.657-.764.244-.3.473-.6.695-.916.344-.451.657-.916.955-1.4.137-.214.267-.435.389-.657s.237-.428.351-.641c.122-.244.237-.489.351-.733s.214-.473.313-.71c.122-.3.237-.6.344-.909.061-.176.115-.344.16-.519a.485.485,0,0,0,.046-.137c1.527-5.055.573-10.416-.42-15.547l-.206-1.054a40.031,40.031,0,0,1-.909-10.492c.008-.069.008-.13.015-.191.031-.321.061-.626.107-.939a.149.149,0,0,0,.008-.053,14.154,14.154,0,0,1,1.6-4.986l.023-.046a10.389,10.389,0,0,1,2.413-2.879,1.405,1.405,0,0,1,.168-.13c.168-.137.336-.267.519-.389a6.57,6.57,0,0,1,1.947-.771c.046-.015.092-.023.137-.038a9.43,9.43,0,0,1,5.422.687,6.8,6.8,0,0,0,2.4.5c5.742.031,8.98-8.705,10.553-14.3.084-.267.153-.535.221-.787.046-.168.092-.328.13-.489a3.3,3.3,0,0,0,.092-.344q.137-.527.252-.985c.015-.069.031-.13.046-.2.084-.344.168-.687.244-1.039.863-3.963,1.306-8.316,2-12.539a39.217,39.217,0,0,1,3.077-10.935c.031-.061.061-.13.092-.2a19.787,19.787,0,0,1,1.321-2.237c2.314-3.39,5.8-5.933,11.256-6.995.16-.038.321-.069.481-.1.069-.015.13-.023.191-.031.221-.038.435-.069.649-.092C83.505,14.92,90.065,20.922,89.9,36.293Z" transform="translate(-18.43 -15.857)" fill="url(#linear-gradient-2)"/>
          <path id="Path_18730" data-name="Path 18730" d="M74.828,45.972c-1.329,3.818-2.917,7.59-4.65,11.332-.046.107-.1.221-.16.336-3.131,6.735-6.766,13.333-10.316,19.8-2.085,3.788-4.238,7.712-6.277,11.615-1.4,2.444-2.78,4.895-4.124,7.369l-.008.008c-.13.229-.252.458-.374.687l-.008.008c-.145.26-.283.519-.42.787q-3.631,6.678-7,13.493a2.431,2.431,0,0,0-.122.244c-.229.458-.458.924-.68,1.39q-2.234,4.536-4.337,9.133H36.12q2.108-4.582,4.33-9.11c.29-.6.588-1.2.886-1.794,0-.008,0-.015.015-.015a1.95,1.95,0,0,1,.084-.183.191.191,0,0,1,.031-.053q1.581-3.207,3.23-6.376H44.7c.13-.275.275-.542.42-.809,0-.008.008-.023.008-.031,1.069-2.046,2.146-4.078,3.253-6.1.115-.221.229-.435.351-.657A.167.167,0,0,1,48.758,97L48.765,97c1.459-2.7,2.963-5.376,4.49-8.033,2.031-3.9,4.185-7.827,6.269-11.615,5.17-9.4,10.507-19.106,14.257-29.071.053-.13.1-.26.153-.389v-.008c.244-.657.481-1.321.71-1.978a73.79,73.79,0,0,0,4.368-29.743c.069-.015.13-.023.191-.031A73.852,73.852,0,0,1,74.828,45.972Z" transform="translate(-22.612 -15.921)" fill="#fcfdfe"/>
          <path id="Path_18731" data-name="Path 18731" d="M104.539,42.62v.267c-.535.489-1.13,1.039-1.772,1.626-5.1,4.7-14.608,13.432-22.267,19.411l-.023-.023-.1-.13c.084-.069.168-.137.26-.206,7.606-5.971,16.945-14.562,22-19.2C103.409,43.659,104.027,43.086,104.539,42.62Z" transform="translate(-33.074 -22.183)" fill="#fcfdfe"/>
          <path id="Path_18732" data-name="Path 18732" d="M83.139,50.779v.008c0,.13-.008.26-.008.389h-.2A34.323,34.323,0,0,0,78.588,33.3a23.335,23.335,0,0,0-3.52-4.711c.031-.061.061-.13.092-.2A24.593,24.593,0,0,1,79.1,33.8,35.036,35.036,0,0,1,83.139,50.779Z" transform="translate(-31.818 -18.819)" fill="#fcfdfe"/>
          <path id="Path_18733" data-name="Path 18733" d="M45.9,119.669c-.076.29-.16.58-.244.863l-.183-.053h-.008c2.245-7.422,1.917-15.891-.97-25.161A69.869,69.869,0,0,0,39.433,83.29c.008-.015,0-.023-.015-.038a1.165,1.165,0,0,1,.168-.122.04.04,0,0,1,.015.031,71.517,71.517,0,0,1,5.086,12.1C47.466,104.206,47.879,112.415,45.9,119.669Z" transform="translate(-23.391 -31.759)" fill="#fcfdfe"/>
          <path id="Path_12068" data-name="Path 12068" d="M53.2,118.929l-.008.008c-.183.183-.351.367-.527.565l-.008.008-.031.031.008.008.137.13a.2.2,0,0,0,.038-.046l.008-.008c6.376-7.1,15.677-8.094,20.381-8.094.573,0,1.084.015,1.5.031a1.608,1.608,0,0,1,.015-.191C70.873,111.186,60.358,111.5,53.2,118.929Z" transform="translate(-26.514 -38.427)" fill="#fcfdfe"/>
          <path id="Path_18734" data-name="Path 18734" d="M23.71,146.508a50.534,50.534,0,0,1,2.925,6.475h-.214a49.357,49.357,0,0,0-2.871-6.369,1.235,1.235,0,0,1,.137-.145C23.7,146.485,23.7,146.493,23.71,146.508Z" transform="translate(-19.64 -46.732)" fill="#fcfdfe"/>
          <path id="Path_18735" data-name="Path 18735" d="M50.165,150.779a40.472,40.472,0,0,0-8.659,3.177H41.07a39.832,39.832,0,0,1,9.079-3.375A1.739,1.739,0,0,0,50.165,150.779Z" transform="translate(-23.782 -47.704)" fill="#fcfdfe"/>
          </g>
          
          </g>
          </svg>