<svg xmlns="http://www.w3.org/2000/svg" width="90.944" height="39.007" viewBox="0 0 90.944 39.007">
  <g id="scholar-logo" transform="translate(-90 -1185)">
    <path id="Path_12316" data-name="Path 12316" d="M1209.741,782.748a.626.626,0,0,1,.626.626v2.381a.626.626,0,0,1-.626.626h-9.7a.626.626,0,0,1-.626-.626v-2.381a.626.626,0,0,1,.626-.626h9.7m0-.491h-11.829a1.118,1.118,0,0,0-1.117,1.117v2.381a1.118,1.118,0,0,0,1.117,1.117h11.829a1.119,1.119,0,0,0,1.117-1.117v-2.381a1.119,1.119,0,0,0-1.117-1.117Z" transform="translate(-1099.879 434.635)" fill="#1f3fc3"/>
    <rect id="Rectangle_2022" data-name="Rectangle 2022" width="12.591" height="3.634" rx="1.817" transform="translate(97.898 1217.383)" fill="#fff"/>
    <g id="Group_5950" data-name="Group 5950" transform="translate(90 1185)">
      <g id="Group_5949" data-name="Group 5949" transform="translate(0 0)">
        <path id="Path_12317" data-name="Path 12317" d="M1178.484,594.483l-4.876,1.221-3.162.792-4.518,1.13-3.859-2.609-2.7-1.826-4.165-2.814,4.876-1.219,3.162-.792,4.18-1.048a.78.78,0,0,1,.626.11l3.57,2.414,2.7,1.826Z" transform="translate(-1155.09 -587.296)" fill="#1f3fc3"/>
        <path id="Path_12318" data-name="Path 12318" d="M1232.743,631.231l-.113.639-4.876,1.219-3.162.792-3.746.938-.772.194.113-.639,4.518-1.13,3.162-.792Z" transform="translate(-1209.349 -624.044)" fill="#1d1d4b"/>
        <path id="Path_12319" data-name="Path 12319" d="M1165.351,613.385l-.113.639-.659-.447-3.2-2.163-2.7-1.825-4.165-2.813.113-.639,4.165,2.813,2.7,1.825Z" transform="translate(-1154.514 -603.055)" fill="#1d1d4b"/>
        <path id="Path_12320" data-name="Path 12320" d="M1226.239,642.592l-.209,1.185a.781.781,0,0,1-.578.621l-2.672.669-1.713.428-.772.194-2.032.508.3-1.681.772-.194,3.746-.938Z" transform="translate(-1207.834 -633.547)" fill="#fc9303"/>
        <path id="Path_12321" data-name="Path 12321" d="M1185.4,631.677l-.3,1.681-1.736-1.172-.66-.445-1.463-.99-2.282-1.542a.779.779,0,0,1-.331-.781l.209-1.185,2.7,1.825,3.2,2.163Z" transform="translate(-1174.68 -620.708)" fill="#ffa929"/>
        <path id="Path_12322" data-name="Path 12322" d="M1166.738,733.467l-.532,3.018-6.141-4.15a.779.779,0,0,1-.331-.781l.236-1.337a.78.78,0,0,1,1.2-.51Z" transform="translate(-1158.87 -706.298)" fill="#0e4bef"/>
        <path id="Path_12323" data-name="Path 12323" d="M1166.277,663.5l1.3-7.389a.779.779,0,0,1,1.2-.51l5.564,3.76-.527,2.991-3.859-2.607-.543,3.079,3.859,2.607-.529,3-6.141-4.149A.779.779,0,0,1,1166.277,663.5Z" transform="translate(-1164.343 -644.316)" fill="#0e4bef"/>
        <path id="Path_12324" data-name="Path 12324" d="M1212.454,673.809l.527-2.991,6.515-1.63a.779.779,0,0,1,.957.891l-.231,1.31a.779.779,0,0,1-.578.621Z" transform="translate(-1202.976 -655.772)" fill="#1f3fc3"/>
        <path id="Path_12325" data-name="Path 12325" d="M1199.361,717h0l.532-3.018,4.518-1.13.538-3.053-4.518,1.13.529-3,6.515-1.63a.779.779,0,0,1,.957.891l-1.3,7.389a.779.779,0,0,1-.578.621Z" transform="translate(-1192.023 -686.812)" fill="#1f3fc3"/>
        <g id="Group_5947" data-name="Group 5947" transform="translate(0.454 27.588)">
          <path id="Path_12326" data-name="Path 12326" d="M1189.852,780.2l1.232-6.986,2.217-.555,2.3-.576,1.345-.337,1.817-.455v0Z" transform="translate(-1184.525 -768.784)" fill="#fc9303"/>
          <path id="Path_12327" data-name="Path 12327" d="M1163.85,760.379l-1.232,6.986-2.789-5.98-.345-.737-.387-.832-1.2-2.582-.6-1.287,1.552,1.049,1.147.776,1.968,1.328Z" transform="translate(-1157.292 -755.947)" fill="#ffa929"/>
        </g>
        <g id="Group_5948" data-name="Group 5948" transform="translate(4.425 36.098)">
          <path id="Path_12328" data-name="Path 12328" d="M1189.856,814.148l.314-1.779.565-.141.586-.147.343-.086.463-.116h0Z" transform="translate(-1188.499 -811.239)" fill="#1f3fc3"/>
          <path id="Path_12329" data-name="Path 12329" d="M1183.233,809.1l-.314,1.779-.711-1.523-.088-.188-.1-.212-.307-.658-.153-.328.4.267.292.2.5.338Z" transform="translate(-1181.562 -807.969)" fill="#0e4bef"/>
        </g>
        <ellipse id="Ellipse_5" data-name="Ellipse 5" cx="0.541" cy="0.945" rx="0.541" ry="0.945" transform="translate(10.814 5.016) rotate(-80)" fill="#1d1d4b"/>
      </g>
    </g>
    <g id="Group_5952" data-name="Group 5952" transform="translate(102.469 1218.055)">
      <g id="Group_5951" data-name="Group 5951" transform="translate(0)">
        <path id="Path_12330" data-name="Path 12330" d="M1231.372,789.392l-.108,1.664.9-.023a.438.438,0,0,1-.035.479l-1.312.046a.1.1,0,0,1-.08-.091l.124-2.046A.866.866,0,0,1,1231.372,789.392Z" transform="translate(-1230.741 -789.369)" fill="#1f3fc3"/>
        <path id="Path_12331" data-name="Path 12331" d="M1241.488,789.4a1,1,0,0,1,.494.022l-.178,2.115a.723.723,0,0,1-.519-.021Z" transform="translate(-1239.56 -789.373)" fill="#1f3fc3"/>
        <path id="Path_12332" data-name="Path 12332" d="M1248.527,789.388l-.859,2.112a.606.606,0,0,1-.514,0l-.547-2.116a1.741,1.741,0,0,1,.565,0l.288,1.512.491-1.512A1.926,1.926,0,0,1,1248.527,789.388Z" transform="translate(-1244.012 -789.365)" fill="#1f3fc3"/>
        <path id="Path_12333" data-name="Path 12333" d="M1261.024,789.4a.536.536,0,0,1-.026.423l-.985.03-.027.368.809-.016a.353.353,0,0,1-.018.4l-.824.033-.041.446,1.011-.029a.436.436,0,0,1-.035.477l-1.408.053a.1.1,0,0,1-.08-.091l.136-1.971a.123.123,0,0,1,.071-.081Z" transform="translate(-1254.712 -789.394)" fill="#1f3fc3"/>
      </g>
    </g>
    <g id="Group_9" data-name="Group 9" transform="translate(-14.24 669.291)">
      <g id="Group_8" data-name="Group 8" transform="translate(112.031 516.763)">
        <g id="Group_7" data-name="Group 7" transform="translate(20.603 13.362)">
          <g id="Group_5" data-name="Group 5">
            <path id="Path_14" data-name="Path 14" d="M238.313,609.955a2.057,2.057,0,0,1,.533-2.356,14.538,14.538,0,0,0,2.616,1.245q1.514-.013,1.662-.723.035-.569-.926-1.1l-1.8-.837a2.466,2.466,0,0,1-1.1-4.029,2.753,2.753,0,0,1,1.318-.94,4.962,4.962,0,0,1,1.742-.163,6.6,6.6,0,0,1,3.247,1,2.907,2.907,0,0,1-.827,2.2,4.62,4.62,0,0,0-2.728-1.138q-.961-.107-1.017.656-.035.435,1.353,1.124a6.539,6.539,0,0,1,2.36,1.412,2.41,2.41,0,0,1,.684,1.934,2.863,2.863,0,0,1-1.5,2.363,4.146,4.146,0,0,1-2.552.488A7.165,7.165,0,0,1,238.313,609.955Z" transform="translate(-238.169 -600.635)" fill="#1f3fc3"/>
            <path id="Path_15" data-name="Path 15" d="M298.4,600.787a1.823,1.823,0,0,1-.659,1.927,5.61,5.61,0,0,0-1.914-.6,2.185,2.185,0,0,0-1.865.632,3.3,3.3,0,0,0-.883,1.918,2.7,2.7,0,0,0,.294,1.907A1.849,1.849,0,0,0,295,607.694a7.646,7.646,0,0,0,2.612-.408,2.2,2.2,0,0,1,.105,2.021,7.109,7.109,0,0,1-2.924.75,4.331,4.331,0,0,1-3.016-1.432,5.691,5.691,0,0,1-.855-4.477,5.816,5.816,0,0,1,1.521-3.46,5.135,5.135,0,0,1,3.794-.99A2.537,2.537,0,0,1,298.4,600.787Z" transform="translate(-282.22 -599.484)" fill="#1f3fc3"/>
            <path id="Path_16" data-name="Path 16" d="M346.566,600.864l-.2,3.74,3.331-.161.267-3.487a2.244,2.244,0,0,1,2.076.014l-.477,9.523a2.3,2.3,0,0,1-2.265.054l.2-4.089-3.288.134-.253,4.082a2.821,2.821,0,0,1-2.279-.161l.6-9.4A2.368,2.368,0,0,1,346.566,600.864Z" transform="translate(-326.444 -600.337)" fill="#1f3fc3"/>
            <path id="Path_17" data-name="Path 17" d="M465.535,600.526l-.505,7.743,4.208-.107a2.041,2.041,0,0,1-.161,2.229l-6.109.214a.46.46,0,0,1-.371-.422l.575-9.524A4.041,4.041,0,0,1,465.535,600.526Z" transform="translate(-425.939 -600.12)" fill="#1f3fc3"/>
            <path id="Path_18" data-name="Path 18" d="M517.529,598.843l2.8,9.637a3.429,3.429,0,0,1-2.5.321l-.5-1.794-2.6.308-.645,1.807a3.009,3.009,0,0,1-2.328-.422l3.674-9.778A1.93,1.93,0,0,1,517.529,598.843Zm-1.2,3.192-1.1,3.293,1.711-.194Z" transform="translate(-467.071 -598.571)" fill="#1f3fc3"/>
            <path id="Path_19" data-name="Path 19" d="M570.842,600.568a22.791,22.791,0,0,1,4.88-.09,2.035,2.035,0,0,1,1.764,1.228,5.037,5.037,0,0,1,.032,2.7,3,3,0,0,1-2.595,2.235l2.483,3.058a1.753,1.753,0,0,1-2.3.85l-2.462-3.406-.821.08-.329,3.166a2.3,2.3,0,0,1-2.293-.214l.89-9.155Zm1.479,1.874-.3,2.763q2.9-.187,3.247-.98a1.643,1.643,0,0,0,.035-1.439q-.315-.645-2.981-.344Z" transform="translate(-515.132 -600.088)" fill="#1f3fc3"/>
          </g>
          <g id="Group_6" data-name="Group 6" transform="translate(0.24 13.159)">
            <path id="Path_20" data-name="Path 20" d="M241.592,679.65a.643.643,0,0,1-.031.509l-1.186.036-.033.443.974-.019a.425.425,0,0,1-.022.478l-.992.04-.049.537,1.217-.035a.525.525,0,0,1-.042.575l-1.7.064a.119.119,0,0,1-.1-.109l.163-2.373a.148.148,0,0,1,.085-.1Z" transform="translate(-239.637 -679.566)" fill="#1d1d4b"/>
            <path id="Path_21" data-name="Path 21" d="M254.919,679.206l.725,2.492a.887.887,0,0,1-.646.083l-.131-.464-.673.08-.167.467a.778.778,0,0,1-.6-.109l.95-2.529a.5.5,0,0,1,.543-.021Zm-.31.826-.285.852.443-.05Z" transform="translate(-251.174 -679.135)" fill="#1d1d4b"/>
            <path id="Path_22" data-name="Path 22" d="M268.785,682.078a.532.532,0,0,1,.138-.609,3.786,3.786,0,0,0,.676.322q.392,0,.43-.187.009-.147-.239-.284l-.466-.216a.637.637,0,0,1-.286-1.042.707.707,0,0,1,.341-.243,1.285,1.285,0,0,1,.451-.043,1.7,1.7,0,0,1,.84.26.751.751,0,0,1-.214.569,1.193,1.193,0,0,0-.705-.294c-.165-.018-.254.038-.263.17q-.009.113.35.291a1.685,1.685,0,0,1,.61.365.622.622,0,0,1,.177.5.74.74,0,0,1-.388.611,1.072,1.072,0,0,1-.66.126A1.853,1.853,0,0,1,268.785,682.078Z" transform="translate(-263.988 -679.667)" fill="#1d1d4b"/>
            <path id="Path_23" data-name="Path 23" d="M282.483,679.576l.434.893.572-.882a.6.6,0,0,1,.531.166l-.858,1.212-.053,1.22a.813.813,0,0,1-.582,0l.049-1.231-.666-1.186A.658.658,0,0,1,282.483,679.576Z" transform="translate(-275.005 -679.498)" fill="#1d1d4b"/>
            <path id="Path_24" data-name="Path 24" d="M303.421,679.671a.616.616,0,0,1-.015.555l-.67.009-.1,2.013a.827.827,0,0,1-.6,0l.118-1.987-.658.014a.441.441,0,0,1-.016-.55Z" transform="translate(-291.303 -679.583)" fill="#1d1d4b"/>
            <path id="Path_25" data-name="Path 25" d="M317.439,679.636a.956.956,0,0,1,.792.372,1.268,1.268,0,0,1,.24.943,1.552,1.552,0,0,1-.4.94,1.113,1.113,0,0,1-.848.37,1.049,1.049,0,0,1-.823-.361,1.168,1.168,0,0,1-.268-.927,1.52,1.52,0,0,1,.43-.952A1.19,1.19,0,0,1,317.439,679.636Zm-.051.652a.6.6,0,0,0-.431.183.812.812,0,0,0-.231.5.624.624,0,0,0,.134.512.5.5,0,0,0,.421.191.561.561,0,0,0,.414-.2.841.841,0,0,0,.2-.483.7.7,0,0,0-.117-.491A.459.459,0,0,0,317.389,680.287Z" transform="translate(-303.629 -679.553)" fill="#1d1d4b"/>
            <path id="Path_26" data-name="Path 26" d="M337.585,679.622l-.131,2,1.088-.028a.528.528,0,0,1-.041.576l-1.58.055a.119.119,0,0,1-.1-.109l.148-2.463a1.044,1.044,0,0,1,.612-.035Z" transform="translate(-320.951 -679.518)" fill="#1d1d4b"/>
            <path id="Path_27" data-name="Path 27" d="M351.493,679.65a.646.646,0,0,1-.031.509l-1.186.036-.033.443.974-.019a.425.425,0,0,1-.022.478l-.992.04-.049.537,1.217-.035a.525.525,0,0,1-.042.575l-1.7.064a.119.119,0,0,1-.1-.109l.163-2.373a.147.147,0,0,1,.085-.1Z" transform="translate(-331.587 -679.566)" fill="#1d1d4b"/>
            <path id="Path_28" data-name="Path 28" d="M364.823,679.206l.726,2.493a.887.887,0,0,1-.645.083l-.131-.464-.673.08-.167.467a.779.779,0,0,1-.6-.109l.951-2.529A.5.5,0,0,1,364.823,679.206Zm-.31.826-.285.852.443-.05Z" transform="translate(-343.127 -679.136)" fill="#1d1d4b"/>
            <path id="Path_29" data-name="Path 29" d="M378.6,679.655a5.888,5.888,0,0,1,1.262-.023.526.526,0,0,1,.455.318,1.3,1.3,0,0,1,.008.7.775.775,0,0,1-.671.578l.642.791a.453.453,0,0,1-.6.22l-.637-.881-.212.021-.085.819a.593.593,0,0,1-.593-.055l.23-2.368Zm.383.485-.078.715q.749-.049.84-.254a.425.425,0,0,0,.009-.372Q379.676,680.061,378.986,680.139Z" transform="translate(-355.549 -679.531)" fill="#1d1d4b"/>
            <path id="Path_30" data-name="Path 30" d="M393.852,679.734l.863,1.4.087-1.364a.58.58,0,0,1,.537,0l-.156,2.468a.474.474,0,0,1-.5.038l-.811-1.412-.1,1.416a.731.731,0,0,1-.589-.042l.156-2.432Q393.462,679.637,393.852,679.734Z" transform="translate(-368.099 -679.606)" fill="#1d1d4b"/>
            <path id="Path_31" data-name="Path 31" d="M407.986,691.826a.314.314,0,0,1,.145.036.269.269,0,0,1,.111.1.274.274,0,0,1,0,.282.263.263,0,0,1-.11.1.317.317,0,0,1-.295,0,.264.264,0,0,1-.109-.1.277.277,0,0,1,.111-.386A.312.312,0,0,1,407.986,691.826Z" transform="translate(-380.241 -689.753)" fill="#1d1d4b"/>
            <path id="Path_32" data-name="Path 32" d="M412.88,691.826a.314.314,0,0,1,.145.036.268.268,0,0,1,.111.1.273.273,0,0,1,.04.142.277.277,0,0,1-.039.14.263.263,0,0,1-.11.1.317.317,0,0,1-.295,0,.264.264,0,0,1-.109-.1.277.277,0,0,1,.111-.386A.313.313,0,0,1,412.88,691.826Z" transform="translate(-384.336 -689.753)" fill="#1d1d4b"/>
            <path id="Path_33" data-name="Path 33" d="M417.787,691.826a.314.314,0,0,1,.145.036.276.276,0,0,1,.112.386.263.263,0,0,1-.11.1.316.316,0,0,1-.294,0,.261.261,0,0,1-.109-.1.278.278,0,0,1,.11-.386A.313.313,0,0,1,417.787,691.826Z" transform="translate(-388.443 -689.753)" fill="#1d1d4b"/>
            <path id="Path_34" data-name="Path 34" d="M429.042,679.65a.644.644,0,0,1-.031.509l-1.186.036-.033.443.974-.019a.425.425,0,0,1-.022.478l-.992.04-.049.537,1.217-.035a.526.526,0,0,1-.042.575l-1.7.064a.119.119,0,0,1-.1-.109l.163-2.373a.149.149,0,0,1,.086-.1Z" transform="translate(-396.47 -679.566)" fill="#1d1d4b"/>
            <path id="Path_35" data-name="Path 35" d="M442.37,679.206l.726,2.492a.888.888,0,0,1-.646.083l-.131-.464-.673.08-.167.467a.778.778,0,0,1-.6-.109l.951-2.529A.5.5,0,0,1,442.37,679.206Zm-.31.826-.285.852.442-.05Z" transform="translate(-408.007 -679.136)" fill="#1d1d4b"/>
            <path id="Path_36" data-name="Path 36" d="M456.236,682.078a.533.533,0,0,1,.138-.609,3.786,3.786,0,0,0,.677.322q.392,0,.43-.187.009-.147-.24-.284l-.466-.216a.637.637,0,0,1-.286-1.042.707.707,0,0,1,.341-.243,1.287,1.287,0,0,1,.451-.043,1.7,1.7,0,0,1,.84.26.751.751,0,0,1-.214.569,1.193,1.193,0,0,0-.705-.294q-.248-.028-.263.169-.009.113.35.291a1.688,1.688,0,0,1,.61.365.622.622,0,0,1,.177.5.74.74,0,0,1-.388.611,1.071,1.071,0,0,1-.66.126A1.853,1.853,0,0,1,456.236,682.078Z" transform="translate(-420.822 -679.667)" fill="#1d1d4b"/>
            <path id="Path_37" data-name="Path 37" d="M469.933,679.577l.434.893.572-.882a.6.6,0,0,1,.531.166l-.858,1.212-.053,1.22a.812.812,0,0,1-.582,0l.049-1.231-.666-1.186a.659.659,0,0,1,.572-.189Z" transform="translate(-431.839 -679.498)" fill="#1d1d4b"/>
            <path id="Path_38" data-name="Path 38" d="M490.872,679.671a.617.617,0,0,1-.015.555l-.67.009-.1,2.013a.827.827,0,0,1-.6,0l.118-1.987-.658.014a.44.44,0,0,1-.016-.55Z" transform="translate(-448.137 -679.583)" fill="#1d1d4b"/>
            <path id="Path_39" data-name="Path 39" d="M504.89,679.636a.956.956,0,0,1,.792.372,1.269,1.269,0,0,1,.24.943,1.554,1.554,0,0,1-.4.94,1.113,1.113,0,0,1-.848.371,1.049,1.049,0,0,1-.823-.361,1.169,1.169,0,0,1-.268-.927,1.52,1.52,0,0,1,.43-.952A1.189,1.189,0,0,1,504.89,679.636Zm-.051.652a.6.6,0,0,0-.431.183.812.812,0,0,0-.231.5.625.625,0,0,0,.134.512.5.5,0,0,0,.421.191.561.561,0,0,0,.414-.2.841.841,0,0,0,.195-.483.7.7,0,0,0-.117-.491A.46.46,0,0,0,504.839,680.287Z" transform="translate(-460.462 -679.553)" fill="#1d1d4b"/>
            <path id="Path_40" data-name="Path 40" d="M524.78,682.078a.532.532,0,0,1,.138-.609,3.776,3.776,0,0,0,.676.322q.392,0,.43-.187c.006-.1-.074-.193-.239-.284l-.466-.216a.638.638,0,0,1-.286-1.042.709.709,0,0,1,.341-.243,1.288,1.288,0,0,1,.451-.043,1.705,1.705,0,0,1,.84.26.751.751,0,0,1-.214.569,1.193,1.193,0,0,0-.706-.294q-.249-.028-.263.169c-.006.075.111.172.35.291a1.686,1.686,0,0,1,.61.365.624.624,0,0,1,.177.5.741.741,0,0,1-.388.611,1.071,1.071,0,0,1-.66.126A1.855,1.855,0,0,1,524.78,682.078Z" transform="translate(-478.17 -679.667)" fill="#1d1d4b"/>
            <path id="Path_41" data-name="Path 41" d="M538.3,679.772a1.506,1.506,0,0,1,.622.009q-.111,1.375-.1,1.6a.59.59,0,0,0,.1.339.358.358,0,0,0,.3.117.324.324,0,0,0,.3-.127.764.764,0,0,0,.1-.331q.022-.206.074-1.6a1.462,1.462,0,0,1,.6,0,10.917,10.917,0,0,1-.194,2.08.87.87,0,0,1-.327.37,1.048,1.048,0,0,1-.575.141,1.134,1.134,0,0,1-.623-.17.775.775,0,0,1-.345-.494A9.383,9.383,0,0,1,538.3,679.772Z" transform="translate(-489.441 -679.643)" fill="#1d1d4b"/>
            <path id="Path_42" data-name="Path 42" d="M554.725,679.692a.472.472,0,0,1-.17.5,1.446,1.446,0,0,0-.495-.154.566.566,0,0,0-.483.163.852.852,0,0,0-.229.5.7.7,0,0,0,.076.493.478.478,0,0,0,.42.289,1.981,1.981,0,0,0,.675-.106.569.569,0,0,1,.027.523,1.841,1.841,0,0,1-.756.194,1.12,1.12,0,0,1-.78-.37,1.47,1.47,0,0,1-.221-1.158,1.506,1.506,0,0,1,.393-.895,1.329,1.329,0,0,1,.981-.256A.656.656,0,0,1,554.725,679.692Z" transform="translate(-501.62 -679.355)" fill="#1d1d4b"/>
            <path id="Path_43" data-name="Path 43" d="M568.882,679.692a.471.471,0,0,1-.171.5,1.446,1.446,0,0,0-.5-.154.566.566,0,0,0-.482.163.856.856,0,0,0-.229.5.7.7,0,0,0,.076.493.478.478,0,0,0,.42.289,1.984,1.984,0,0,0,.676-.106.57.57,0,0,1,.027.523,1.839,1.839,0,0,1-.756.194,1.119,1.119,0,0,1-.78-.37,1.47,1.47,0,0,1-.221-1.158,1.5,1.5,0,0,1,.394-.895,1.328,1.328,0,0,1,.981-.256A.656.656,0,0,1,568.882,679.692Z" transform="translate(-513.464 -679.355)" fill="#1d1d4b"/>
            <path id="Path_44" data-name="Path 44" d="M582.548,679.65a.644.644,0,0,1-.031.509l-1.186.036-.033.443.974-.019a.424.424,0,0,1-.022.478l-.992.04-.049.537,1.217-.035a.526.526,0,0,1-.042.575l-1.7.064a.119.119,0,0,1-.1-.109l.163-2.373a.148.148,0,0,1,.085-.1Z" transform="translate(-524.903 -679.566)" fill="#1d1d4b"/>
            <path id="Path_45" data-name="Path 45" d="M594.88,682.078a.532.532,0,0,1,.138-.609,3.776,3.776,0,0,0,.676.322q.392,0,.43-.187.009-.147-.239-.284l-.466-.216a.638.638,0,0,1-.286-1.042.709.709,0,0,1,.341-.243,1.288,1.288,0,0,1,.451-.043,1.706,1.706,0,0,1,.84.26.751.751,0,0,1-.214.569,1.193,1.193,0,0,0-.705-.294q-.249-.028-.263.17-.009.113.35.291a1.683,1.683,0,0,1,.61.365.623.623,0,0,1,.177.5.74.74,0,0,1-.388.611,1.071,1.071,0,0,1-.66.126A1.855,1.855,0,0,1,594.88,682.078Z" transform="translate(-536.82 -679.667)" fill="#1d1d4b"/>
            <path id="Path_46" data-name="Path 46" d="M608.508,682.078a.532.532,0,0,1,.138-.609,3.775,3.775,0,0,0,.677.322q.392,0,.43-.187.009-.147-.239-.284l-.466-.216a.638.638,0,0,1-.285-1.042.709.709,0,0,1,.341-.243,1.288,1.288,0,0,1,.451-.043,1.706,1.706,0,0,1,.84.26.751.751,0,0,1-.214.569,1.194,1.194,0,0,0-.706-.294q-.249-.028-.263.169-.009.113.35.291a1.686,1.686,0,0,1,.61.365.623.623,0,0,1,.177.5.74.74,0,0,1-.388.611,1.071,1.071,0,0,1-.66.126A1.855,1.855,0,0,1,608.508,682.078Z" transform="translate(-548.223 -679.667)" fill="#1d1d4b"/>
          </g>
        </g>
      </g>
      <path id="Path_47" data-name="Path 47" d="M415.247,611.328a1.272,1.272,0,0,1-.109,2.2l-2.39,1.342-2.39,1.342a1.216,1.216,0,0,1-1.849-1.1l.133-2.683.133-2.683a1.325,1.325,0,0,1,1.958-1.1l2.257,1.341Z" transform="translate(-248.051 -76.731)" fill="#fc9303"/>
    </g>
  </g>
</svg>
