<svg xmlns="http://www.w3.org/2000/svg" xmlns:xlink="http://www.w3.org/1999/xlink" width="70" height="70" viewBox="0 0 95 95">
  <defs>
    <filter id="Ellipse_439" x="0" y="0" width="95" height="95" filterUnits="userSpaceOnUse">
      <feOffset dy="3" input="SourceAlpha"/>
      <feGaussianBlur stdDeviation="7.5" result="blur"/>
      <feFlood flood-opacity="0.102"/>
      <feComposite operator="in" in2="blur"/>
      <feComposite in="SourceGraphic"/>
    </filter>
  </defs>
  <g id="add-file-icon" transform="translate(-1132.5 -495.5)">
    <g transform="matrix(1, 0, 0, 1, 1132.5, 495.5)" filter="url(#Ellipse_439)">
      <circle id="Ellipse_439-2" data-name="Ellipse 439" cx="25" cy="25" r="25" transform="translate(22.5 19.5)" fill="#fff"/>
    </g>
    <g id="Group_6157" data-name="Group 6157" transform="translate(1169.053 524.823)">
      <path id="Path" d="M2.454,0A2.444,2.444,0,0,0,0,2.429V19.434a2.444,2.444,0,0,0,2.454,2.429H15.975a2.444,2.444,0,0,0,2.454-2.429V2.429A2.444,2.444,0,0,0,15.975,0Z" transform="translate(1.734 3.984)" fill="#fff"/>
      <path id="Path-2" data-name="Path" d="M17.71,25.3H4.188A4.171,4.171,0,0,1,0,21.15V4.145A4.171,4.171,0,0,1,4.188,0H17.71A4.171,4.171,0,0,1,21.9,4.145V21.15A4.171,4.171,0,0,1,17.71,25.3Z" transform="translate(0 2.267)" fill="#fff"/>
      <path id="Fill_12" data-name="Fill 12" d="M2.606,1.61H.8A.8.8,0,0,1,.8,0h1.8a.8.8,0,0,1,0,1.61" transform="translate(9.243)" fill="#4d5160"/>
      <path id="Fill_8" data-name="Fill 8" d="M15.635,22.115H3.082A3.086,3.086,0,0,1,0,19.032V3.083A3.086,3.086,0,0,1,3.082,0H15.635a3.086,3.086,0,0,1,3.082,3.083v15.95A3.086,3.086,0,0,1,15.635,22.115ZM5.372,15.1a.8.8,0,0,0,0,1.61H8.349a.8.8,0,0,0,0-1.61Zm0-4.324a.8.8,0,0,0,0,1.61h7.974a.8.8,0,1,0,0-1.61Zm0-4.324a.8.8,0,0,0,0,1.61h7.974a.8.8,0,1,0,0-1.61Z" transform="translate(1.59 3.858)" fill="#2f57e5"/>
      <path id="Fill_20" data-name="Fill 20" d="M1.888,4.247A1.89,1.89,0,0,1,0,2.359V.8A.805.805,0,0,1,.8,0H7.193A.8.8,0,0,1,8,.8V2.359A1.89,1.89,0,0,1,6.11,4.247Z" transform="translate(6.95 0.826)" fill="#4d5160"/>
    </g>
    <g id="Group_12163" data-name="Group 12163" transform="translate(1165.422 545.52)">
      <path id="Union_13" data-name="Union 13" d="M3.5,8.738V6.973H1.737a1.736,1.736,0,1,1,0-3.472H3.5V1.736a1.739,1.739,0,0,1,3.477,0V3.5H8.742a1.736,1.736,0,1,1,0,3.472H6.978V8.738a1.739,1.739,0,0,1-3.477,0Z" transform="translate(0 0)" fill="#2f57e5" stroke="#fff" stroke-width="1"/>
    </g>
  </g>
</svg>
