<svg xmlns="http://www.w3.org/2000/svg" width="30" height="30" viewBox="0 0 50 50">
  <path id="add-icon" d="M25.563.563a25,25,0,1,0,25,25A25,25,0,0,0,25.563.563ZM40.079,28.385a1.213,1.213,0,0,1-1.21,1.21H29.595v9.274a1.213,1.213,0,0,1-1.21,1.21H22.74a1.213,1.213,0,0,1-1.21-1.21V29.595H12.256a1.213,1.213,0,0,1-1.21-1.21V22.74a1.213,1.213,0,0,1,1.21-1.21H21.53V12.256a1.213,1.213,0,0,1,1.21-1.21h5.645a1.213,1.213,0,0,1,1.21,1.21V21.53h9.274a1.213,1.213,0,0,1,1.21,1.21Z" transform="translate(-0.563 -0.563)" fill="#2f57e5"/>
</svg>
