<svg xmlns="http://www.w3.org/2000/svg" xmlns:xlink="http://www.w3.org/1999/xlink" width="70" height="70" viewBox="0 0 95 95">
  <defs>
    <filter id="Ellipse_438" x="0" y="0" width="95" height="95" filterUnits="userSpaceOnUse">
      <feOffset dy="3" input="SourceAlpha"/>
      <feGaussianBlur stdDeviation="7.5" result="blur"/>
      <feFlood flood-opacity="0.102"/>
      <feComposite operator="in" in2="blur"/>
      <feComposite in="SourceGraphic"/>
    </filter>
  </defs>
  <g id="add-folder-icon" transform="translate(-1132.5 -555.5)">
    <g transform="matrix(1, 0, 0, 1, 1132.5, 555.5)" filter="url(#Ellipse_438)">
      <circle id="Ellipse_438-2" data-name="Ellipse 438" cx="25" cy="25" r="25" transform="translate(22.5 19.5)" fill="#fff"/>
    </g>
    <g id="Group_12165" data-name="Group 12165" transform="translate(1170.541 591.115)">
      <path id="Path_12470" data-name="Path 12470" d="M-24.068-5.288V-1.7a4.125,4.125,0,0,0-1.8-.3h-6.42l-1.441-1.627-.36-.4h-5.6a3.942,3.942,0,0,0-1.8.3V-5.288a1.815,1.815,0,0,1,1.8-1.8H-25.87A1.807,1.807,0,0,1-24.068-5.288Z" transform="translate(42.282 7.09)" fill="#4d5160"/>
      <path id="Path_12471" data-name="Path 12471" d="M-23.894,3.831V11.71a1.8,1.8,0,0,1-1.8,1.8H-41.008a1.811,1.811,0,0,1-1.8-1.8V1.8a1.811,1.811,0,0,1,1.8-1.8h5.855l1.8,2.03H-25.7A1.8,1.8,0,0,1-23.894,3.831Z" transform="translate(42.81 4.258)" fill="#2f57e5"/>
    </g>
    <g id="Group_12166" data-name="Group 12166" transform="translate(1165.422 603.648)">
      <path id="Union_13" data-name="Union 13" d="M3.5,8.738V6.973H1.737a1.736,1.736,0,1,1,0-3.472H3.5V1.736a1.739,1.739,0,0,1,3.477,0V3.5H8.742a1.736,1.736,0,1,1,0,3.472H6.978V8.738a1.739,1.739,0,0,1-3.477,0Z" transform="translate(0 0)" fill="#2f57e5" stroke="#fff" stroke-width="1"/>
    </g>
  </g>
</svg>
