<svg xmlns="http://www.w3.org/2000/svg" width="30" height="30" viewBox="0 0 30 30">
  <g id="chat-group-icon" transform="translate(0 0.028)">
    <rect id="Rectangle_2003" data-name="Rectangle 2003" width="30" height="30" rx="10" transform="translate(0 -0.028)" fill="#edeff7"/>
    <g id="Group_6031" data-name="Group 6031" transform="translate(-2461.185 -1858.398)">
      <path id="Path_12472" data-name="Path 12472" d="M2470.779,1875.269c-.426,0-.835,0-1.244,0a1.805,1.805,0,0,1-1.268-.459,1.678,1.678,0,0,1-.612-1.266q-.016-2.809,0-5.617a1.776,1.776,0,0,1,1.757-1.757c1.639-.013,3.278-.006,4.917-.007q2.559,0,5.118,0a1.794,1.794,0,0,1,1.817,1.435,2.1,2.1,0,0,1,.046.446q0,2.667,0,5.334a1.8,1.8,0,0,1-1.271,1.8,2.219,2.219,0,0,1-.638.091q-2.593.011-5.184,0a.37.37,0,0,0-.291.12q-1.068,1.078-2.144,2.146a.565.565,0,0,1-.969-.19.829.829,0,0,1-.033-.262c0-.533,0-1.067,0-1.6Z" transform="translate(0 0)" fill="#2f57e5"/>
      <path id="Path_12473" data-name="Path 12473" d="M2648.483,2007.717a8.52,8.52,0,0,1,1.288.081,1.527,1.527,0,0,1,1.212,1.533q.015,2.233,0,4.466a1.548,1.548,0,0,1-1.25,1.556,5.589,5.589,0,0,1-.945.049c-.115,0-.23,0-.364,0v.2c0,.395,0,.789,0,1.183a.579.579,0,0,1-1.019.424c-.545-.546-1.094-1.089-1.634-1.641a.491.491,0,0,0-.389-.165q-2.049.01-4.1,0a1.611,1.611,0,0,1-1.626-1.195.2.2,0,0,1,.058-.22q.442-.428.871-.872a.332.332,0,0,1,.263-.106c1.627,0,3.255.012,4.882,0a2.649,2.649,0,0,0,2.5-1.58,2.7,2.7,0,0,0,.255-1.228q0-1.133,0-2.266Z" transform="translate(-166.266 -136.836)" fill="#4d5160"/>
    </g>
  </g>
</svg>
