<svg xmlns="http://www.w3.org/2000/svg" width="17.114" height="17.114" viewBox="0 0 17.114 17.114">
  <g id="Icon_ionic-ios-close-circle-outline" data-name="Icon ionic-ios-close-circle-outline" transform="translate(-3.375 -3.375)">
    <path id="Path_18361" data-name="Path 18361" d="M18.757,17.825l-2.168-2.168,2.168-2.168a.657.657,0,1,0-.93-.93L15.66,14.728,13.492,12.56a.657.657,0,0,0-.93.93l2.168,2.168-2.168,2.168a.636.636,0,0,0,0,.93.653.653,0,0,0,.93,0l2.168-2.168,2.168,2.168a.66.66,0,0,0,.93,0A.653.653,0,0,0,18.757,17.825Z" transform="translate(-3.728 -3.726)" fill="#fff"/>
    <path id="Path_18362" data-name="Path 18362" d="M11.932,4.527A7.4,7.4,0,1,1,6.695,6.695a7.356,7.356,0,0,1,5.237-2.168m0-1.152a8.557,8.557,0,1,0,8.557,8.557,8.555,8.555,0,0,0-8.557-8.557Z" fill="#fff"/>
  </g>
</svg>
