<svg xmlns="http://www.w3.org/2000/svg" width="18.93" height="13.146" viewBox="0 0 18.93 13.146">
  <g id="course-level-icon" transform="translate(24.407 4.465)">
    <path id="Path_18639" data-name="Path 18639" d="M-5.917,5.7a.763.763,0,0,1-.42.12h-17.21a.858.858,0,0,1-.86-.85.86.86,0,0,1,.86-.86h7.27A27.066,27.066,0,0,1-9.987,5.3a.645.645,0,0,0,.2.03.7.7,0,0,0,.38-.11.724.724,0,0,0,.32-.51l.07-.59h1.11l-.15.47a.7.7,0,0,0,.29.79c.02.01.07.05.09.06a3.789,3.789,0,0,0,.42.18,3.58,3.58,0,0,0,.48.11,2.42,2.42,0,0,0,.38.02,2,2,0,0,0,.35-.02A.688.688,0,0,0-5.917,5.7Z" fill="#4d5160"/>
    <rect id="Rectangle_2636" data-name="Rectangle 2636" width="18.926" height="1.717" rx="0.858" transform="translate(-24.402 6.964)" fill="#4d5160"/>
    <g id="Group_12326" data-name="Group 12326">
      <g id="Path_12539" data-name="Path 12539">
        <path id="Path_18640" data-name="Path 18640" d="M-5.567-1.725l-.46,3.69.1,2.26.03.75-.03.02a1.552,1.552,0,0,1-.21.04,2.348,2.348,0,0,1-.26.01,2.437,2.437,0,0,1-.27-.01c-.12-.02-.24-.05-.36-.08s-.22-.09-.33-.14l-.03-.02.21-.68.69-2.21.42-3.31-2.3.1-.97.05-1.15.06-3.48.16-.13-.01c-.02-.01-.04-.01-.06-.02l-4.35-1.34-.18-.06-.79-.24-2.41-.74a.3.3,0,0,1-.22-.34.169.169,0,0,1,.03-.1.284.284,0,0,1,.27-.18l8.14-.4.09.02,7.79,2.39a.349.349,0,0,1,.22.25A.11.11,0,0,1-5.567-1.725Z" fill="#4d5160"/>
        <path id="Path_18641" data-name="Path 18641" d="M-14.107-1.035l-4.4-1.37,4.35,1.34c.02.01.04.01.06.02l.13.01,3.48-.16-3.49.18Z" fill="#4d5160"/>
      </g>
      <g id="Path_12540" data-name="Path 12540">
        <path id="Path_18642" data-name="Path 18642" d="M-9.167-.555l-.56,4.67-.06.51q-.915-.285-1.86-.51a28.181,28.181,0,0,0-6.54-.77c-.46,0-.93.01-1.4.03,0,0,.28-1.95.69-5.17l.99.31,3.59,1.12a.5.5,0,0,0,.12.02l.14.02c.02,0,.05.01.08.01h.04l3.55-.18Z" fill="#4d5160"/>
      </g>
    </g>
  </g>
</svg>
