<svg xmlns="http://www.w3.org/2000/svg" xmlns:xlink="http://www.w3.org/1999/xlink" width="99" height="99" viewBox="0 0 99 99">
  <defs>
    <filter id="Rectangle_2683" x="0" y="0" width="99" height="99" filterUnits="userSpaceOnUse">
      <feOffset dy="1" input="SourceAlpha"/>
      <feGaussianBlur stdDeviation="7.5" result="blur"/>
      <feFlood flood-opacity="0.071"/>
      <feComposite operator="in" in2="blur"/>
      <feComposite in="SourceGraphic"/>
    </filter>
  </defs>
  <g id="Courses-icon" transform="translate(-933.5 -626.5)">
    <g transform="matrix(1, 0, 0, 1, 933.5, 626.5)" filter="url(#Rectangle_2683)">
      <rect id="Rectangle_2683-2" data-name="Rectangle 2683" width="54" height="54" transform="translate(22.5 21.5)" fill="#3a0606" opacity="0"/>
    </g>
    <g id="Group_12242" data-name="Group 12242" transform="translate(962.822 656.333)">
      <path id="Path_12547" data-name="Path 12547" d="M36.655,3.87H16.208a11.1,11.1,0,0,1,.125,1.638,9.862,9.862,0,0,1-.182,1.933H34.8V25.613H6.815V16.175a10.759,10.759,0,0,1-1.217.068A10.32,10.32,0,0,1,3.21,15.97V30.06a1.787,1.787,0,0,0,1.763,1.763H17.311v3.23H15.8c-1.854,0-3.318.416-3.318,2.27a.886.886,0,0,0,.876.887H28.38a.9.9,0,0,0,.887-.887c.029-1.617-1.55-2.27-3.4-2.27h-1.5v-3.23H36.655a1.787,1.787,0,0,0,1.763-1.763V5.633A1.787,1.787,0,0,0,36.655,3.87ZM22.1,28.763a1.29,1.29,0,0,1-1.262,1.217,1.218,1.218,0,0,1-1.217-1.217,1.24,1.24,0,1,1,2.479-.08Z" transform="translate(0.663 0.755)" fill="#4d5160"/>
      <g id="Path_12548" data-name="Path 12548" transform="translate(-1.62 -1.63)">
        <path id="Path_18554" data-name="Path 18554" d="M6.261-1.63a7.892,7.892,0,1,0,7.892,7.892A7.887,7.887,0,0,0,6.261-1.63Zm3.2,8.211a.526.526,0,0,1-.182.171L4.726,9.606a.518.518,0,0,1-.25.068.554.554,0,0,1-.5-.307.487.487,0,0,1-.068-.25V3.476a.524.524,0,0,1,.512-.546H4.43a.534.534,0,0,1,.3.091L9.274,5.876A.52.52,0,0,1,9.456,6.581Z" transform="translate(1.62 1.63)" fill="#2f57e5"/>
      </g>
      <path id="Path_18555" data-name="Path 18555" d="M28.767,19.276a1.043,1.043,0,0,1-1.046,1.046H11.856a1.046,1.046,0,0,1,0-2.092H27.72A1.043,1.043,0,0,1,28.767,19.276Z" transform="translate(1.705 2.725)" fill="#4d5160"/>
      <path id="Path_18556" data-name="Path 18556" d="M28.281,15.148a1.043,1.043,0,0,1-1.046,1.046H15.408a1.052,1.052,0,1,1,0-2.1H27.235A1.053,1.053,0,0,1,28.281,15.148Z" transform="translate(2.191 2.157)" fill="#4d5160"/>
      <path id="Path_18557" data-name="Path 18557" d="M27.829,11.018a1.051,1.051,0,0,1-1.046,1.046h-8.1a1.052,1.052,0,0,1,0-2.1h8.1A1.053,1.053,0,0,1,27.829,11.018Z" transform="translate(2.643 1.59)" fill="#4d5160"/>
    </g>
  </g>
</svg>
