<svg xmlns="http://www.w3.org/2000/svg" width="30" height="30" viewBox="0 0 30 30">
  <g id="delete-calender-icon" transform="translate(-1100.6 -1761.6)">
    <g id="Rectangle_2154" data-name="Rectangle 2154" transform="translate(1100.6 1761.6)" fill="#fff" stroke="#f36f56" stroke-width="1">
      <rect width="30" height="30" rx="12" stroke="none"/>
      <rect x="0.5" y="0.5" width="29" height="29" rx="11.5" fill="none"/>
    </g>
    <path id="Icon_ionic-ios-close" data-name="Icon ionic-ios-close" d="M17.905,16.639l3.823-3.823a.9.9,0,0,0-1.267-1.267l-3.823,3.823-3.823-3.823a.9.9,0,1,0-1.267,1.267l3.823,3.823-3.823,3.823a.9.9,0,1,0,1.267,1.267l3.823-3.823,3.823,3.823a.9.9,0,1,0,1.267-1.267Z" transform="translate(1098.964 1759.961)" fill="#f36f56"/>
  </g>
</svg>
