<svg xmlns="http://www.w3.org/2000/svg" xmlns:xlink="http://www.w3.org/1999/xlink" width="56" height="56" viewBox="0 0 56 56">
  <defs>
    <filter id="joanna-kosinska-LAaSoL0LrYs-unsplash" x="0" y="0" width="56" height="56" filterUnits="userSpaceOnUse">
      <feOffset dy="2" input="SourceAlpha"/>
      <feGaussianBlur stdDeviation="6" result="blur"/>
      <feFlood flood-color="#2f57e5" flood-opacity="0.102"/>
      <feComposite operator="in" in2="blur"/>
      <feComposite in="SourceGraphic"/>
    </filter>
  </defs>
  <g id="download-icon" transform="translate(-1135 -286)">
    <g transform="matrix(1, 0, 0, 1, 1135, 286)" filter="url(#joanna-kosinska-LAaSoL0LrYs-unsplash)">
      <rect id="joanna-kosinska-LAaSoL0LrYs-unsplash-2" data-name="joanna-kosinska-LAaSoL0LrYs-unsplash" width="20" height="20" rx="10" transform="translate(18 16)" fill="#2f57e5" opacity="0"/>
    </g>
    <g id="Group_12253" data-name="Group 12253" transform="translate(1157.256 306.677)">
      <g id="Icon_feather-download" data-name="Icon feather-download">
        <g id="Path_18494" data-name="Path 18494">
          <path id="Path_18736" data-name="Path 18736" d="M1.782,11.593A1.884,1.884,0,0,1-.1,9.711V7.443a.75.75,0,1,1,1.5,0V9.707a.383.383,0,0,0,.382.386H9.707a.383.383,0,0,0,.382-.384V7.443a.75.75,0,0,1,1.5,0V9.707a1.884,1.884,0,0,1-1.876,1.886Z" fill="#2f57e5"/>
        </g>
        <g id="Path_18495" data-name="Path 18495">
          <path id="Path_18737" data-name="Path 18737" d="M9.1,5.14,6.27,7.97a.716.716,0,0,1-.53.22.749.749,0,0,1-.53-.22L2.38,5.14A.75.75,0,0,1,3.44,4.08L4.99,5.63V.65a.75.75,0,0,1,1.5,0V5.63L8.04,4.08a.754.754,0,0,1,1.06,0A.737.737,0,0,1,9.1,5.14Z" fill="#2f57e5"/>
        </g>
      </g>
    </g>
  </g>
</svg>
