<svg xmlns="http://www.w3.org/2000/svg" width="16.406" height="16.393" viewBox="0 0 16.406 16.393">
  <path id="Expired-icon" d="M5.044,0a5.044,5.044,0,0,0,0,10.088h.315L6.246,8.63a4.339,4.339,0,0,1-1.2.2,3.783,3.783,0,0,1,0-7.566A3.827,3.827,0,0,1,8.827,4.729a1.7,1.7,0,0,1,.946-.315h.256A5.038,5.038,0,0,0,5.044,0Zm0,1.892c-.252,0-.315.13-.315.256l-.1,2.286a.728.728,0,0,0-.335.611c0,.021.018.038.02.059L3.409,6.187a.3.3,0,0,0,.059.433A.3.3,0,0,0,3.9,6.68l1.025-.906a.722.722,0,0,0,.118.02.743.743,0,0,0,.749-.749.727.727,0,0,0-.256-.552L5.359,2.148A.291.291,0,0,0,5.044,1.892ZM9.734,5.064a1.407,1.407,0,0,0-1.162.808L3.409,14.5c-.631,1.072-.138,1.892,1.123,1.892h10.4c1.324,0,1.832-.883,1.2-1.892l-5.221-8.63A1.434,1.434,0,0,0,9.734,5.064Zm.039,2.877a.9.9,0,0,1,.69.315.943.943,0,0,1,.256.69c0,.252-.386,2.085-.512,3.409H9.261C9.135,11.03,8.768,9.2,8.768,8.945a1.086,1.086,0,0,1,1-1Zm0,4.985a.943.943,0,0,1,.69.256,1,1,0,0,1,.315.69.9.9,0,0,1-.315.69,1.057,1.057,0,0,1-1.379,0,.9.9,0,0,1-.315-.69,1,1,0,0,1,.315-.69A.943.943,0,0,1,9.773,12.925Z" fill="#2f57e5"/>
</svg>
