<svg xmlns="http://www.w3.org/2000/svg" width="35" height="35" viewBox="0 0 35 35">
  <g id="grid-icon" transform="translate(-421 -1418.006)">
    <rect id="Rectangle_2003" data-name="Rectangle 2003" width="35" height="35" rx="10" transform="translate(421 1418.006)" fill="#2f57e5"/>
    <path id="Icon_awesome-list-ul" data-name="Icon awesome-list-ul" d="M19.622,4.093H17.969a.842.842,0,0,0-.842.842V6.619a.842.842,0,0,0,.842.842h1.653a.842.842,0,0,0,.842-.842V4.935A.842.842,0,0,0,19.622,4.093Z" transform="translate(413.108 1424.508)" fill="#edeff7"/>
    <path id="Icon_awesome-list-ul-2" data-name="Icon awesome-list-ul" d="M19.622,4.093H17.969a.842.842,0,0,0-.842.842V6.619a.842.842,0,0,0,.842.842h1.653a.842.842,0,0,0,.842-.842V4.935A.842.842,0,0,0,19.622,4.093Z" transform="translate(419.705 1424.508)" fill="#edeff7"/>
    <path id="Icon_awesome-list-ul-3" data-name="Icon awesome-list-ul" d="M19.622,4.093H17.969a.842.842,0,0,0-.842.842V6.619a.842.842,0,0,0,.842.842h1.653a.842.842,0,0,0,.842-.842V4.935A.842.842,0,0,0,19.622,4.093Z" transform="translate(426.3 1424.508)" fill="#edeff7"/>
    <path id="Icon_awesome-list-ul-4" data-name="Icon awesome-list-ul" d="M19.622,4.093H17.969a.842.842,0,0,0-.842.842V6.619a.842.842,0,0,0,.842.842h1.653a.842.842,0,0,0,.842-.842V4.935A.842.842,0,0,0,19.622,4.093Z" transform="translate(413.108 1429.729)" fill="#edeff7"/>
    <path id="Icon_awesome-list-ul-5" data-name="Icon awesome-list-ul" d="M19.622,4.093H17.969a.842.842,0,0,0-.842.842V6.619a.842.842,0,0,0,.842.842h1.653a.842.842,0,0,0,.842-.842V4.935A.842.842,0,0,0,19.622,4.093Z" transform="translate(419.705 1429.729)" fill="#edeff7"/>
    <path id="Icon_awesome-list-ul-6" data-name="Icon awesome-list-ul" d="M19.622,4.093H17.969a.842.842,0,0,0-.842.842V6.619a.842.842,0,0,0,.842.842h1.653a.842.842,0,0,0,.842-.842V4.935A.842.842,0,0,0,19.622,4.093Z" transform="translate(426.3 1429.729)" fill="#edeff7"/>
    <path id="Icon_awesome-list-ul-7" data-name="Icon awesome-list-ul" d="M19.622,4.093H17.969a.842.842,0,0,0-.842.842V6.619a.842.842,0,0,0,.842.842h1.653a.842.842,0,0,0,.842-.842V4.935A.842.842,0,0,0,19.622,4.093Z" transform="translate(413.108 1434.95)" fill="#edeff7"/>
    <path id="Icon_awesome-list-ul-8" data-name="Icon awesome-list-ul" d="M19.622,4.093H17.969a.842.842,0,0,0-.842.842V6.619a.842.842,0,0,0,.842.842h1.653a.842.842,0,0,0,.842-.842V4.935A.842.842,0,0,0,19.622,4.093Z" transform="translate(419.705 1434.95)" fill="#edeff7"/>
    <path id="Icon_awesome-list-ul-9" data-name="Icon awesome-list-ul" d="M19.622,4.093H17.969a.842.842,0,0,0-.842.842V6.619a.842.842,0,0,0,.842.842h1.653a.842.842,0,0,0,.842-.842V4.935A.842.842,0,0,0,19.622,4.093Z" transform="translate(426.3 1434.95)" fill="#edeff7"/>
  </g>
</svg>
