<svg xmlns="http://www.w3.org/2000/svg" width="35" height="35" viewBox="0 0 35 35">
  <g id="list-icon" transform="translate(-476 -1418.006)">
    <rect id="Rectangle_2003" data-name="Rectangle 2003" width="35" height="35" rx="10" transform="translate(476 1418.006)" fill="#edeff7"/>
    <path id="Icon_awesome-list-ul" data-name="Icon awesome-list-ul" d="M1.735,3.375A1.735,1.735,0,1,0,3.471,5.11,1.735,1.735,0,0,0,1.735,3.375Zm0,5.785A1.735,1.735,0,1,0,3.471,10.9,1.735,1.735,0,0,0,1.735,9.16Zm0,5.785A1.735,1.735,0,1,0,3.471,16.68a1.735,1.735,0,0,0-1.735-1.735Zm13.778.579H6.363a.578.578,0,0,0-.578.578v1.157a.578.578,0,0,0,.578.578h9.15a.578.578,0,0,0,.578-.578V16.1A.578.578,0,0,0,15.514,15.523Zm0-11.57H6.363a.578.578,0,0,0-.578.578V5.689a.578.578,0,0,0,.578.578h9.15a.578.578,0,0,0,.578-.578V4.532A.578.578,0,0,0,15.514,3.953Zm0,5.785H6.363a.578.578,0,0,0-.578.578v1.157a.578.578,0,0,0,.578.578h9.15a.578.578,0,0,0,.578-.578V10.317A.578.578,0,0,0,15.514,9.738Z" transform="translate(485.454 1424.61)" fill="#4d5160"/>
  </g>
</svg>
