<svg xmlns="http://www.w3.org/2000/svg" width="30" height="30" viewBox="0 0 30 30">
  <g id="management-icon" transform="translate(-2617 79)">
    <rect id="Rectangle_2003" data-name="Rectangle 2003" width="30" height="30" rx="10" transform="translate(2617 -79)" fill="#edeff7" opacity="0"/>
    <g id="Group_12454" data-name="Group 12454" transform="translate(2622.226 -73.773)">
      <path id="Path_18531" data-name="Path 18531" d="M18.318,11.469l-1.492-1.326a12.015,12.015,0,0,0-.055-1.381L18.1,7.325a.6.6,0,0,0,.11-.608l-.663-1.436a.665.665,0,0,0-.552-.387L15,5.005a7.148,7.148,0,0,0-.994-.884l-.055-1.989a.531.531,0,0,0-.387-.5l-1.547-.552a.623.623,0,0,0-.608.166L10.143,2.685a10.644,10.644,0,0,0-1.326.055L7.381,1.415a.6.6,0,0,0-.608-.11l-1.547.663a.608.608,0,0,0-.331.552l.11,1.989a7.148,7.148,0,0,0-.884.994l-1.989.11a.531.531,0,0,0-.5.387L1.083,7.546a.623.623,0,0,0,.166.608L2.685,9.425a12.015,12.015,0,0,0,.055,1.381L1.415,12.242a.6.6,0,0,0-.11.608l.663,1.436a.555.555,0,0,0,.552.331l1.989-.11a7.148,7.148,0,0,0,.994.884l.11,1.989a.531.531,0,0,0,.387.5l1.547.552c.055,0,.11.055.166.055a.5.5,0,0,0,.387-.166l1.326-1.492a10.644,10.644,0,0,0,1.326-.055L12.242,18.1a.6.6,0,0,0,.608.11l1.436-.663a.531.531,0,0,0,.331-.5l-.11-1.989a7.148,7.148,0,0,0,.884-.994l1.989-.055a.531.531,0,0,0,.5-.387l.552-1.547A.5.5,0,0,0,18.318,11.469ZM12.408,9.756a2.652,2.652,0,0,1-5.3,0A2.618,2.618,0,0,1,9.756,7.1,2.652,2.652,0,0,1,12.408,9.756Z" fill="#4d5160"/>
    </g>
  </g>
</svg>
