<svg id="my-courses-icon" xmlns="http://www.w3.org/2000/svg" width="30" height="30" viewBox="0 0 30 30">
  <rect id="Rectangle_2003" data-name="Rectangle 2003" width="30" height="30" rx="10" fill="#edeff7"/>
  <g id="Group_12259" data-name="Group 12259" transform="translate(-1227.32 -96.874)">
    <path id="Path_18456" data-name="Path 18456" d="M1251.016,111.55a.592.592,0,0,0-.083.435c0,.718,0,1.436,0,2.154,0,.225.007.484-.3.487-.327,0-.331-.263-.331-.5q0-1.147,0-2.293a.96.96,0,0,1,.028-.31,2.922,2.922,0,0,0,.256-1.165.393.393,0,0,1,.149-.3c.412-.263.345-.664.344-1.054,0-.888.029-.775-.738-.567q-4.341,1.178-8.677,2.37a1.268,1.268,0,0,1-.78-.014q-4.127-1.4-8.256-2.8c-.256-.087-.48-.208-.469-.522s.247-.418.505-.488l10.419-2.845a1.018,1.018,0,0,1,.614.029q4.16,1.411,8.323,2.817c.242.082.464.2.47.488.005.31-.215.447-.48.51a.324.324,0,0,0-.277.373c.006.278,0,.556,0,.834-.007.306-.012.589.311.782a.562.562,0,0,1,.234.554,1.244,1.244,0,0,0,.14.761,1.106,1.106,0,0,1,.092.472c.009.811,0,1.621,0,2.432a.424.424,0,0,1-.161.4c-.223.144-.464-.02-.469-.341-.012-.753,0-1.506-.01-2.258a.629.629,0,0,0-.085-.455.584.584,0,0,0-.055.365c0,.938,0,1.876,0,2.815a2.274,2.274,0,0,1-.017.346.3.3,0,0,1-.3.285.293.293,0,0,1-.311-.269,1.978,1.978,0,0,1-.025-.345c0-.938,0-1.876,0-2.815C1251.069,111.8,1251.109,111.668,1251.016,111.55Z" transform="translate(0 0)" fill="#4d5160"/>
    <path id="Path_18457" data-name="Path 18457" d="M1311.5,201.23c0,.741,0,1.482,0,2.223a.529.529,0,0,1-.413.6c-1.551.376-3.083.839-4.655,1.123a6.94,6.94,0,0,1-3.979-.471c-.469-.2-.923-.431-1.388-.638a.586.586,0,0,1-.375-.6c.005-1.447,0-2.894.005-4.341,0-.5.25-.672.725-.513,1.053.353,2.1.713,3.151,1.087a1.326,1.326,0,0,0,.809.032q2.661-.665,5.326-1.31c.6-.147.789,0,.792.624C1311.505,199.771,1311.5,200.5,1311.5,201.23Z" transform="translate(-63.776 -87.708)" fill="#4d5160"/>
  </g>
</svg>
