<svg id="notification-icon" xmlns="http://www.w3.org/2000/svg" width="30" height="30" viewBox="0 0 30 30">
  <g id="Group_6311" data-name="Group 6311">
    <rect id="Rectangle_2003" data-name="Rectangle 2003" width="30" height="30" rx="10" fill="#edeff7"/>
    <g id="Group_5592" data-name="Group 5592" transform="translate(5.591 5.82)">
      <path id="Path_11843" data-name="Path 11843" d="M14.968,18.006a1.126,1.126,0,0,0,.454-1.525,1.094,1.094,0,0,0-.093-.144L13.34,17.486a1.124,1.124,0,0,0,1.473.6A1.092,1.092,0,0,0,14.968,18.006Z" transform="translate(-1.881 -2.837)" fill="#4d5160"/>
      <path id="Path_11844" data-name="Path 11844" d="M15.156,9.413c-.783-.331-1.855-.168-3.37-2.8-1.555-2.7-3.368-3.1-4.627-2.716-.119.034-.214.043-.278-.067l-.048-.083a.814.814,0,0,0-1.434.77l.025.044.051.087c.061.107.008.188-.08.275-.959.907-1.522,2.676.031,5.375,1.515,2.632.837,3.48.731,4.329a.662.662,0,0,0,.989.655L11.2,12.933,15.229,10.6a.664.664,0,0,0-.073-1.185Z" fill="#4d5160"/>
    </g>
  </g>
</svg>
