<svg xmlns="http://www.w3.org/2000/svg" width="30" height="30" viewBox="0 0 30 30">
  <g id="resources-icon" transform="translate(-0.032 0.294)">
    <rect id="Rectangle_2003" data-name="Rectangle 2003" width="30" height="30" rx="10" transform="translate(0.032 -0.294)" fill="#edeff7"/>
    <g id="Group_6030" data-name="Group 6030" transform="translate(8.068 8.508)">
      <path id="Path_12470" data-name="Path 12470" d="M-28.916-5.79V-3.2a2.977,2.977,0,0,0-1.3-.216h-4.633l-1.04-1.174-.26-.29h-4.043a2.845,2.845,0,0,0-1.3.215V-5.79a1.31,1.31,0,0,1,1.3-1.3h9.972A1.3,1.3,0,0,1-28.916-5.79Z" transform="translate(42.061 7.09)" fill="#4d5160"/>
      <path id="Path_12471" data-name="Path 12471" d="M-29.158,2.765V8.451a1.3,1.3,0,0,1-1.3,1.3H-41.51a1.307,1.307,0,0,1-1.3-1.3V1.3A1.307,1.307,0,0,1-41.51,0h4.226l1.3,1.465h5.526A1.3,1.3,0,0,1-29.158,2.765Z" transform="translate(42.81 3.073)" fill="#2f57e5"/>
    </g>
  </g>
</svg>
