<svg xmlns="http://www.w3.org/2000/svg" xmlns:xlink="http://www.w3.org/1999/xlink" width="99" height="99" viewBox="0 0 99 99">
  <defs>
    <filter id="Rectangle_2682" x="0" y="0" width="99" height="99" filterUnits="userSpaceOnUse">
      <feOffset dy="1" input="SourceAlpha"/>
      <feGaussianBlur stdDeviation="7.5" result="blur"/>
      <feFlood flood-opacity="0.071"/>
      <feComposite operator="in" in2="blur"/>
      <feComposite in="SourceGraphic"/>
    </filter>
  </defs>
  <g id="Student-icon" transform="translate(-541.5 -626.5)">
    <g id="Group_12235" data-name="Group 12235" transform="translate(561.418 629.266)">
      <path id="Path_18534" data-name="Path 18534" d="M27.673,82.856c-8.281,0-14.994,2.563-14.994,5.728.124,7.037-.016,5.777,14.994,5.727s15.262.957,14.994-5.727C42.668,85.42,35.955,82.856,27.673,82.856Z" transform="translate(1.737 -31.13)" fill="#4d5160"/>
      <path id="Path_18535" data-name="Path 18535" d="M45.833,50.163a8.521,8.521,0,1,1-17.043,0,8.431,8.431,0,0,1,1.121-4.223L36.894,47.9l.133.04h.51l.133-.04,7.023-2A8.461,8.461,0,0,1,45.833,50.163Z" transform="translate(-7.901 -9.022)" fill="#4d5160"/>
      <g id="Path_12539" data-name="Path 12539" transform="translate(13.181 26.78)">
        <path id="Path_18536" data-name="Path 18536" d="M47.175,44.945l-.063.031a1.9,1.9,0,0,1-.381.126,3.707,3.707,0,0,1-.968.13h-.054a5.272,5.272,0,0,1-.7-.067,5.673,5.673,0,0,1-.668-.188l-.063-.031L45.3,39.172V32.7L30.192,37.016h-.255L14.382,32.637a.593.593,0,0,1-.511-.605.459.459,0,0,1,.031-.193.6.6,0,0,1,.48-.417l15.554-4.137h.188l15.554,4.106a.639.639,0,0,1,.48.417.276.276,0,0,1,.031.157v7.2Z" transform="translate(-13.798 -26.78)" fill="#2f57e5"/>
      </g>
    </g>
    <g transform="matrix(1, 0, 0, 1, 541.5, 626.5)" filter="url(#Rectangle_2682)">
      <rect id="Rectangle_2682-2" data-name="Rectangle 2682" width="54" height="54" transform="translate(22.5 21.5)" fill="#3a0606" opacity="0"/>
    </g>
  </g>
</svg>
