<svg xmlns="http://www.w3.org/2000/svg" width="20" height="20" viewBox="0 0 20 20">
  <g id="uncheck-box-icon" transform="translate(-250 -305)">
    <g id="Path_18507" data-name="Path 18507" transform="translate(250 305)" fill="rgba(237,239,247,0)">
      <path d="M 14 19 L 6 19 C 3.242990016937256 19 1 16.75700950622559 1 14 L 1 6 C 1 3.242990016937256 3.242990016937256 1 6 1 L 14 1 C 16.75700950622559 1 19 3.242990016937256 19 6 L 19 14 C 19 16.75700950622559 16.75700950622559 19 14 19 Z" stroke="none"/>
      <path d="M 6 2 C 3.794389724731445 2 2 3.794389724731445 2 6 L 2 14 C 2 16.20561027526855 3.794389724731445 18 6 18 L 14 18 C 16.20561027526855 18 18 16.20561027526855 18 14 L 18 6 C 18 3.794389724731445 16.20561027526855 2 14 2 L 6 2 M 6 0 L 14 0 C 17.3137092590332 0 20 2.686290740966797 20 6 L 20 14 C 20 17.3137092590332 17.3137092590332 20 14 20 L 6 20 C 2.686290740966797 20 0 17.3137092590332 0 14 L 0 6 C 0 2.686290740966797 2.686290740966797 0 6 0 Z" stroke="none" fill="#b7b8be"/>
    </g>
  </g>
</svg>
