<svg xmlns="http://www.w3.org/2000/svg" width="30" height="30" viewBox="0 0 30 30">
  <g id="money-back-gurantee-icon" transform="translate(0 0.207)">
    <rect id="Rectangle_2003" data-name="Rectangle 2003" width="30" height="30" rx="10" transform="translate(0 -0.207)" fill="#edeff7"/>
    <g id="share" transform="translate(8.68 9.815)">
      <path id="Path_12298" data-name="Path 12298" d="M128.144,4.66l4.34-4.507a.5.5,0,0,1,.861.348v2.17h.167a6.517,6.517,0,0,1,6.51,6.51v1a.494.494,0,0,1-.39.479.447.447,0,0,1-.11.013.518.518,0,0,1-.457-.285,5.477,5.477,0,0,0-4.926-3.045h-.793v2.17a.5.5,0,0,1-.861.347l-4.34-4.507a.5.5,0,0,1,0-.7Zm0,0" transform="translate(-128.003 -0.001)" fill="#2f57e5"/>
    </g>
  </g>
</svg>
