<svg id="online-course-icon" xmlns="http://www.w3.org/2000/svg" width="30" height="30" viewBox="0 0 30 30">
  <rect id="Rectangle_2003" data-name="Rectangle 2003" width="30" height="30" rx="10" fill="#edeff7"/>
  <g id="Group_5877" data-name="Group 5877" transform="translate(8.252 8.253)">
    <path id="Path_12299" data-name="Path 12299" d="M634.777,318.388a6.4,6.4,0,0,1-.245,1.753,3.157,3.157,0,0,0-1.671-.475,3.2,3.2,0,0,0-3.194,3.194,3.156,3.156,0,0,0,.475,1.671,6.388,6.388,0,1,1,4.635-6.143Z" transform="translate(-622 -312)" fill="#2f57e5"/>
    <g id="Group_5876" data-name="Group 5876" transform="translate(8.432 8.432)">
      <path id="Path_12300" data-name="Path 12300" d="M643.355,330.927a2.434,2.434,0,1,1-1.017-1.973A2.43,2.43,0,0,1,643.355,330.927Z" transform="translate(-638.5 -328.5)" fill="#2f57e5"/>
    </g>
  </g>
</svg>
