<svg id="add-homework-icon" xmlns="http://www.w3.org/2000/svg" width="48" height="48" viewBox="0 0 48 48">
  <rect id="Rectangle_2003" data-name="Rectangle 2003" width="48" height="48" rx="13" fill="#edeff7"/>
  <g id="Group_12655" data-name="Group 12655" transform="translate(14.944 12.602)">
    <path id="Path" d="M2.029,0A2.021,2.021,0,0,0,0,2.009V16.073a2.021,2.021,0,0,0,2.029,2.009H13.214a2.021,2.021,0,0,0,2.029-2.009V2.009A2.021,2.021,0,0,0,13.214,0Z" transform="translate(1.434 3.295)" fill="#fff"/>
    <path id="Path-2" data-name="Path" d="M14.648,20.921H3.464A3.45,3.45,0,0,1,0,17.493V3.428A3.45,3.45,0,0,1,3.464,0H14.648a3.45,3.45,0,0,1,3.464,3.428V17.493a3.45,3.45,0,0,1-3.464,3.428Z" transform="translate(0 1.875)" fill="#fff"/>
    <path id="Fill_12" data-name="Fill 12" d="M2.155,1.332H.666A.666.666,0,0,1,.666,0H2.155a.666.666,0,0,1,0,1.332" transform="translate(7.645)" fill="#4d5160"/>
    <path id="Fill_8" data-name="Fill 8" d="M12.932,18.291H2.549A2.552,2.552,0,0,1,0,15.741V2.55A2.552,2.552,0,0,1,2.549,0H12.932a2.552,2.552,0,0,1,2.549,2.55V15.741A2.552,2.552,0,0,1,12.932,18.291Zm-8.489-5.8a.666.666,0,0,0,0,1.331H6.905a.666.666,0,0,0,0-1.331Zm0-3.576a.666.666,0,0,0,0,1.331h6.6a.666.666,0,1,0,0-1.331Zm0-3.576a.666.666,0,0,0,0,1.331h6.6a.666.666,0,1,0,0-1.331Z" transform="translate(1.315 3.191)" fill="#2f57e5"/>
    <path id="Fill_20" data-name="Fill 20" d="M1.562,3.513A1.563,1.563,0,0,1,0,1.951V.666A.666.666,0,0,1,.666,0H5.95a.666.666,0,0,1,.666.666V1.951A1.563,1.563,0,0,1,5.054,3.513Z" transform="translate(5.748 0.683)" fill="#4d5160"/>
  </g>
</svg>
