<svg id="course-rate-icon" xmlns="http://www.w3.org/2000/svg" width="24" height="24" viewBox="0 0 24 24">
  <rect id="Rectangle_2003" data-name="Rectangle 2003" width="24" height="24" rx="7" fill="#edeff7"/>
  <path id="Icon_awesome-star" data-name="Icon awesome-star" d="M5.905.332,4.685,2.807l-2.731.4a.6.6,0,0,0-.331,1.021L3.6,6.151l-.467,2.72A.6.6,0,0,0,4,9.5L6.442,8.217,8.885,9.5a.6.6,0,0,0,.867-.63l-.467-2.72,1.976-1.925a.6.6,0,0,0-.331-1.021L8.2,2.807,6.978.332A.6.6,0,0,0,5.905.332Z" transform="translate(5.558 7.215)" fill="#2f57e5"/>
</svg>
