<svg id="course-icon" xmlns="http://www.w3.org/2000/svg" width="24" height="24" viewBox="0 0 24 24">
  <rect id="Rectangle_2003" data-name="Rectangle 2003" width="24" height="24" rx="7" fill="#edeff7"/>
  <g id="Group_12648" data-name="Group 12648" transform="translate(-1227.212 -95.811)">
    <path id="Path_18456" data-name="Path 18456" d="M1245.238,109.268a.411.411,0,0,0-.057.3c0,.5,0,1,0,1.494,0,.156.005.336-.21.338s-.229-.183-.23-.349q0-.8,0-1.591a.668.668,0,0,1,.019-.215,2.027,2.027,0,0,0,.177-.808.273.273,0,0,1,.1-.209c.286-.182.24-.461.239-.731,0-.616.02-.537-.512-.393q-3.011.817-6.019,1.644a.88.88,0,0,1-.541-.01q-2.863-.974-5.727-1.941c-.178-.06-.333-.145-.325-.362s.172-.29.351-.339l7.228-1.973a.706.706,0,0,1,.426.02q2.886.979,5.774,1.954c.168.057.322.136.326.339s-.149.31-.333.354a.225.225,0,0,0-.193.259c0,.193,0,.386,0,.578-.005.212-.008.409.215.543a.39.39,0,0,1,.163.384.864.864,0,0,0,.1.528.768.768,0,0,1,.064.328c.006.562,0,1.125,0,1.687a.294.294,0,0,1-.112.277c-.155.1-.322-.014-.325-.237-.008-.522,0-1.044-.007-1.567a.436.436,0,0,0-.059-.316.4.4,0,0,0-.038.253c0,.651,0,1.3,0,1.952a1.576,1.576,0,0,1-.011.24.208.208,0,0,1-.207.2.2.2,0,0,1-.215-.187,1.378,1.378,0,0,1-.017-.24c0-.651,0-1.3,0-1.952C1245.275,109.441,1245.3,109.351,1245.238,109.268Z" transform="translate(0 0)" fill="#2f57e5"/>
    <path id="Path_18457" data-name="Path 18457" d="M1308.192,200.353c0,.514,0,1.028,0,1.542a.367.367,0,0,1-.286.415c-1.076.261-2.139.582-3.229.779a4.814,4.814,0,0,1-2.76-.327c-.325-.136-.64-.3-.963-.442a.407.407,0,0,1-.26-.417c0-1,0-2.008,0-3.012,0-.345.173-.466.5-.356.731.245,1.46.494,2.186.754a.92.92,0,0,0,.562.022q1.846-.461,3.695-.909c.418-.1.548,0,.549.433C1308.194,199.341,1308.193,199.847,1308.192,200.353Z" transform="translate(-65.236 -89.716)" fill="#2f57e5"/>
  </g>
</svg>
