<svg xmlns="http://www.w3.org/2000/svg" width="48" height="48" viewBox="0 0 48 48">
  <g id="end-subscription-icon" transform="translate(12 12)">
    <rect id="Rectangle_2003" data-name="Rectangle 2003" width="48" height="48" rx="13" transform="translate(-12 -12)" fill="#edeff7"/>
    <g id="Group_12214" data-name="Group 12214" transform="translate(-11246.511 367.795)">
      <g id="subscription-icon" transform="translate(11247.679 -366.491)">
        <rect id="Rectangle_2104" data-name="Rectangle 2104" width="17.296" height="2.147" rx="1.073" transform="translate(2.196 4.341)" fill="#2f57e5"/>
        <path id="Path_12496" data-name="Path 12496" d="M-300.061-205.74H-317.19a2.28,2.28,0,0,0-2.28,2.28v8.445a2.28,2.28,0,0,0,2.28,2.28h17.129a2.28,2.28,0,0,0,2.28-2.28v-8.445A2.28,2.28,0,0,0-300.061-205.74Zm-5.59,6.694-2.2,1.27-2.2,1.27a.222.222,0,0,1-.333-.192v-5.079a.222.222,0,0,1,.333-.192l2.2,1.269,2.2,1.27A.221.221,0,0,1-305.651-199.046Z" transform="translate(319.47 214.423)" fill="#2f57e5"/>
        <rect id="Rectangle_2105" data-name="Rectangle 2105" width="12.961" height="2.147" rx="1.073" transform="translate(4.364 0)" fill="#2f57e5"/>
      </g>
    </g>
  </g>
</svg>
