<svg xmlns="http://www.w3.org/2000/svg" width="48" height="48" viewBox="0 0 48 48">
  <g id="end-bandle-icon" transform="translate(12 12)">
    <rect id="Rectangle_2003" data-name="Rectangle 2003" width="48" height="48" rx="13" transform="translate(-12 -12)" fill="#edeff7"/>
    <g id="Group_12216" data-name="Group 12216" transform="translate(0.296 0.018)">
      <path id="Path_12526" data-name="Path 12526" d="M-54.939,25.61a7.28,7.28,0,0,0-7.281,7.281,7.28,7.28,0,0,0,7.281,7.281,7.283,7.283,0,0,0,7.281-7.281A7.283,7.283,0,0,0-54.939,25.61Zm2.851,10.157h-5.7a.541.541,0,0,1-.541-.541.541.541,0,0,1,.541-.541h5.7a.541.541,0,0,1,.541.541A.541.541,0,0,1-52.087,35.767Zm0-2.334h-5.7a.541.541,0,0,1-.541-.541.541.541,0,0,1,.541-.541h5.7a.541.541,0,0,1,.541.541A.541.541,0,0,1-52.087,33.433Zm0-2.334h-5.7a.541.541,0,0,1-.541-.541.541.541,0,0,1,.541-.541h5.7a.541.541,0,0,1,.541.541A.541.541,0,0,1-52.087,31.1Z" transform="translate(73.065 -16.208)" fill="#2f57e5"/>
      <path id="Path_12527" data-name="Path 12527" d="M-84.98,33.5a1.179,1.179,0,0,0-.676-.683,1.135,1.135,0,0,0-.264-.029,1.16,1.16,0,0,0-.772.28,1.07,1.07,0,0,0-.2,1.079,8.766,8.766,0,0,0,1.56,2.559,9.76,9.76,0,0,0,6.326,3.41,9.776,9.776,0,0,0,1.026.073,8.718,8.718,0,0,1-.478-2.055A7.838,7.838,0,0,1-84.98,33.5Z" transform="translate(87.813 -20.489)" fill="#4d5160"/>
      <path id="Path_12528" data-name="Path 12528" d="M-70.752,6.923a9.687,9.687,0,0,0-5.742-4.215,10.729,10.729,0,0,0-2.777-.379,9.578,9.578,0,0,0-6.893,3.024,8.931,8.931,0,0,0-1.679,2.329l-.023-.023s-.006-.006-.01-.01c-.086-.06-.356-.281-.841-.693l-.007-.006a.234.234,0,0,0-.185-.026.13.13,0,0,0-.04.017.235.235,0,0,0-.125.178.161.161,0,0,0,0,.056l.109.808.4,2.929.056.406a.409.409,0,0,0,.218.32.389.389,0,0,0,.049.026l.017.01a.4.4,0,0,0,.122.03.457.457,0,0,0,.313-.092l.867-.679,2.048-1.6.379-.3a.237.237,0,0,0,.056-.294.23.23,0,0,0-.152-.105l-.01,0c-.613-.046-.976-.076-1.085-.092,0,0-.056,0-.152-.006-.043,0-.092-.006-.152-.013a6.643,6.643,0,0,1,.775-1.168,7.663,7.663,0,0,1,6.151-2.975c.214,0,.439.006.659.023a7.833,7.833,0,0,1,6.873,5.808c.195-.013.389-.02.587-.02a8.5,8.5,0,0,1,1.517.132A9.783,9.783,0,0,0-70.752,6.923Z" transform="translate(89.075 -2.329)" fill="#4d5160"/>
      <path id="Path_12529" data-name="Path 12529" d="M-69.4,16.71l-.241-3.941a.855.855,0,0,0-.854-.844.856.856,0,0,0-.854.844l-.241,3.941a1.925,1.925,0,0,0-.815,1.563,2.013,2.013,0,0,0,.02.28l-1.89,2.14a.851.851,0,0,0-.264.584.843.843,0,0,0,.224.613.864.864,0,0,0,.63.277.852.852,0,0,0,.567-.218l2.2-1.811a2.031,2.031,0,0,0,.422.046,1.9,1.9,0,0,0,.739-.149A1.915,1.915,0,0,0-68.6,18.579a1.854,1.854,0,0,0,.026-.307A1.919,1.919,0,0,0-69.4,16.71Zm-1.095,2.4a.835.835,0,0,1-.834-.834.835.835,0,0,1,.834-.831.833.833,0,0,1,.834.831A.833.833,0,0,1-70.49,19.108Z" transform="translate(80.406 -8.049)" fill="#4d5160"/>
    </g>
  </g>
</svg>
