<svg xmlns="http://www.w3.org/2000/svg" width="48" height="48" viewBox="0 0 48 48">
  <g id="end-hours-icon" transform="translate(12 12)">
    <rect id="Rectangle_2003" data-name="Rectangle 2003" width="48" height="48" rx="13" transform="translate(-12 -12)" fill="#edeff7"/>
    <g id="Group_12215" data-name="Group 12215" transform="translate(-2.621 -0.81)">
      <path id="Path_12510" data-name="Path 12510" d="M-865.1,1028.266l-.606.363c-.118.071-.252.135-.337-.014s.036-.232.155-.3c.2-.115.39-.234.609-.367a7.734,7.734,0,0,0-2.508-2.51c-.128.212-.253.417-.376.624-.071.119-.156.232-.3.136s-.079-.208-.011-.32c.122-.2.24-.4.37-.617a7.508,7.508,0,0,0-3.429-.92c0,.252,0,.478,0,.7,0,.126-.022.241-.171.245-.165,0-.188-.121-.187-.254,0-.234,0-.468,0-.729a7.51,7.51,0,0,0-3.425.916c.108.182.214.345.3.517.07.135.264.294.036.425s-.263-.127-.348-.247c-.113-.159-.205-.333-.315-.515a7.764,7.764,0,0,0-2.508,2.5c.164.1.329.189.48.3.132.1.418.14.272.38s-.3,0-.445-.066c-.162-.079-.312-.181-.486-.285a7.534,7.534,0,0,0-.92,3.426c.213,0,.414,0,.615,0a.421.421,0,0,1,.2.015c.06.037.141.134.127.176a.26.26,0,0,1-.181.154c-.255.018-.512.007-.794.007a7.494,7.494,0,0,0,.917,3.431c.2-.12.392-.231.579-.343.119-.072.259-.17.357-.01s-.052.253-.178.329c-.188.112-.376.226-.579.348a7.752,7.752,0,0,0,2.51,2.509c.128-.213.25-.419.375-.624.069-.114.147-.238.3-.138.138.089.082.206.016.319-.112.189-.219.381-.336.584a7.488,7.488,0,0,0,3.521.925v1.816a9.322,9.322,0,0,1-8.622-5.857,9.32,9.32,0,0,1,2.932-10.823,9.317,9.317,0,0,1,11.267-.165,9.4,9.4,0,0,1,3.861,7.061h-1.84A7.456,7.456,0,0,0-865.1,1028.266Z" transform="translate(881.093 -1022.495)" fill="#4d5160"/>
      <g id="Group_6189" data-name="Group 6189" transform="translate(10.08 9.956)">
        <path id="Path_12511" data-name="Path 12511" d="M-684.5,1201.651a1.257,1.257,0,0,0-1.363-1.35h-4.713c-.03-.055-.049-.074-.05-.095q-.009-.711-.014-1.424c-.006-.713-.316-1.031-1.015-1.032h-4.776c-.78,0-1.075.3-1.076,1.075,0,.482,0,.964,0,1.475h-2.966q-.894,0-1.788,0a1.284,1.284,0,0,0-1.387,1.374q-.01,1.1,0,2.209a2.606,2.606,0,0,0,2.717,2.714l1.643,0,2.527,0c.115,0,.229-.012.366-.02,0-.123,0-.216,0-.31a.842.842,0,0,1,.871-.882q.708-.008,1.417-.008.735,0,1.47.009a.839.839,0,0,1,.885.869c.005.1.013.206.02.324.113.007.206.018.3.019.886,0,1.771.005,2.657.005q.81,0,1.62-.007a2.592,2.592,0,0,0,2.655-2.63C-684.482,1203.2-684.488,1202.423-684.5,1201.651Zm-6.7-1.327h-5.759c0-.557,0-1.078,0-1.6,0-.229.091-.359.335-.359h5.093c.246,0,.333.134.333.361C-691.194,1199.249-691.192,1199.77-691.192,1200.324Z" transform="translate(703.651 -1197.748)" fill="#2f57e5"/>
      </g>
      <path id="Path_12512" data-name="Path 12512" d="M-703.6,1339.333a3.238,3.238,0,0,0,2.145,1.323,7.8,7.8,0,0,0,1.067.04c1.212,0,2.424,0,3.637,0h.4c.03.053.052.074.051.093-.048.8.338,1.173,1.209,1.131.735-.035,1.473-.007,2.21-.007.983,0,1.184-.186,1.259-1.216h.367c1.355,0,2.71-.009,4.064,0a3.092,3.092,0,0,0,2.617-1.2.724.724,0,0,1,.125-.085v.379q0,2.834,0,5.668a1.3,1.3,0,0,1-1.483,1.49h-16.187a1.3,1.3,0,0,1-1.482-1.49C-703.6,1343.456-703.6,1341.449-703.6,1339.333Z" transform="translate(713.68 -1321.334)" fill="#2f57e5"/>
      <path id="Path_12513" data-name="Path 12513" d="M-760.148,1107.883a1,1,0,0,1-1.177.962.391.391,0,0,0-.277.079c-.6.476-1.2.962-1.792,1.445a.519.519,0,0,1-.167.115.21.21,0,0,1-.18-.031.255.255,0,0,1-.031-.2c.016-.06.078-.11.122-.162.489-.581.982-1.16,1.465-1.746a.385.385,0,0,0,.084-.276.928.928,0,0,1,.332-.939.534.534,0,0,0,.2-.425c.077-1.084.162-2.167.245-3.25a.408.408,0,0,1,.027-.178c.035-.055.1-.122.159-.123a.253.253,0,0,1,.164.118.389.389,0,0,1,.028.177c.083,1.091.168,2.182.245,3.273a.5.5,0,0,0,.2.4A.919.919,0,0,1-760.148,1107.883Z" transform="translate(770.444 -1098.572)" fill="#4d5160"/>
      <path id="Path_12514" data-name="Path 12514" d="M-563.5,1343.837c-.462,0-.925-.008-1.387,0-.276.006-.388-.117-.385-.383q.007-.587,0-1.173c0-.269.116-.384.387-.382q1.387.01,2.774,0c.271,0,.389.113.383.384-.009.4-.006.806,0,1.209,0,.24-.112.345-.347.343C-562.55,1343.835-563.024,1343.837-563.5,1343.837Z" transform="translate(583.212 -1323.757)" fill="#2f57e5"/>
    </g>
  </g>
</svg>
