<svg xmlns="http://www.w3.org/2000/svg" width="24" height="24" viewBox="0 0 24 24">
  <g id="get-message-icon" transform="translate(0 0.304)">
    <rect id="Rectangle_2003" data-name="Rectangle 2003" width="24" height="24" rx="7" transform="translate(0 -0.304)" fill="#edeff7"/>
    <g id="Group_6031" data-name="Group 6031" transform="translate(5.559 6.844)">
      <path id="Path_12472" data-name="Path 12472" d="M2469.966,1872.905c-.315,0-.618,0-.922,0a1.337,1.337,0,0,1-.939-.34,1.243,1.243,0,0,1-.453-.938q-.012-2.08,0-4.16a1.316,1.316,0,0,1,1.3-1.3c1.214-.01,2.427,0,3.641,0q1.895,0,3.79,0a1.329,1.329,0,0,1,1.346,1.062,1.562,1.562,0,0,1,.034.33q0,1.975,0,3.95a1.331,1.331,0,0,1-.941,1.33,1.646,1.646,0,0,1-.472.067q-1.92.008-3.839,0a.274.274,0,0,0-.215.089q-.791.8-1.587,1.589a.419.419,0,0,1-.718-.141.61.61,0,0,1-.025-.194c0-.395,0-.79,0-1.185Z" transform="translate(-2467.645 -1866.161)" fill="#2f57e5"/>
      <path id="Path_12473" data-name="Path 12473" d="M2646.19,2007.717a6.325,6.325,0,0,1,.954.06,1.131,1.131,0,0,1,.9,1.135q.011,1.653,0,3.307a1.146,1.146,0,0,1-.926,1.152,4.132,4.132,0,0,1-.7.036c-.085,0-.17,0-.27,0v.145c0,.292,0,.584,0,.876a.429.429,0,0,1-.755.314c-.4-.4-.81-.806-1.209-1.215a.364.364,0,0,0-.288-.122q-1.517.008-3.035,0a1.193,1.193,0,0,1-1.2-.885.146.146,0,0,1,.043-.163q.328-.317.646-.646a.246.246,0,0,1,.195-.079c1.2,0,2.41.009,3.615,0a1.962,1.962,0,0,0,1.85-1.17,2,2,0,0,0,.188-.909q0-.839,0-1.678Z" transform="translate(-2635.4 -2004.222)" fill="#4d5160"/>
    </g>
  </g>
</svg>
