<svg id="Gift-icon" xmlns="http://www.w3.org/2000/svg" width="48" height="48" viewBox="0 0 48 48">
  <rect id="Rectangle_2003" data-name="Rectangle 2003" width="48" height="48" rx="13" fill="#edeff7"/>
  <g id="gift-icon-2" data-name="gift-icon" transform="translate(13.786 13.001)">
    <path id="Path_1" data-name="Path 1" d="M22.231,7.357H18.091a2.885,2.885,0,0,0,1-2.161,3.028,3.028,0,0,0-3.1-2.946,2.74,2.74,0,0,0-2.4,1.345,2.74,2.74,0,0,0-2.4-1.345A3.028,3.028,0,0,0,8.089,5.2a2.868,2.868,0,0,0,1,2.161H4.946A1.57,1.57,0,0,0,3.375,8.928V9.91a.2.2,0,0,0,.2.2H23.606a.2.2,0,0,0,.2-.2V8.928A1.57,1.57,0,0,0,22.231,7.357ZM15.99,3.625A1.614,1.614,0,0,1,17.645,5.2,1.614,1.614,0,0,1,15.99,6.768H14.335C14.335,4.411,15.077,3.625,15.99,3.625Zm-4.8,0c.913,0,1.655.786,1.655,3.143H11.187A1.614,1.614,0,0,1,9.533,5.2,1.614,1.614,0,0,1,11.187,3.625Z" transform="translate(-3.375 -2.25)" fill="#2f57e5"/>
    <path id="Path_2" data-name="Path 2" d="M4.5,15.721v10.9a1.576,1.576,0,0,0,1.571,1.571h7.169V15.328H4.893A.394.394,0,0,0,4.5,15.721Z" transform="translate(-3.714 -6.195)" fill="#2f57e5"/>
    <path id="Path_3" data-name="Path 3" d="M27.332,15.328H18.984V28.193h7.169a1.576,1.576,0,0,0,1.571-1.571v-10.9A.394.394,0,0,0,27.332,15.328Z" transform="translate(-8.083 -6.195)" fill="#2f57e5"/>
  </g>
</svg>
