<svg id="new-subscriber-icon" xmlns="http://www.w3.org/2000/svg" width="24" height="24" viewBox="0 0 24 24">
  <rect id="Rectangle_2003" data-name="Rectangle 2003" width="24" height="24" rx="7" fill="#edeff7"/>
  <g id="Group_12653" data-name="Group 12653" transform="translate(47.989 2.317)">
    <path id="Path_12496" data-name="Path 12496" d="M-33.436,8.68h-7.078A1.226,1.226,0,0,0-41.74,9.906v4.544a1.226,1.226,0,0,0,1.226,1.226h9.207a1.226,1.226,0,0,0,1.226-1.226V12.041A3.361,3.361,0,0,1-33.436,8.68Zm-.828,3.555a.106.106,0,0,1-.048.048l-1.183.683-1.183.683a.121.121,0,0,1-.161-.043.14.14,0,0,1-.016-.059V10.815a.121.121,0,0,1,.118-.124.108.108,0,0,1,.059.016l1.183.683,1.183.683A.118.118,0,0,1-34.264,12.235Z" transform="translate(0 -1.627)" fill="#2f57e5"/>
    <g id="Group_12652" data-name="Group 12652" transform="translate(-32.169 5.159)">
      <path id="Path_18745" data-name="Path 18745" d="M-23.416,8.576l.73-1.218-1.258-.528.195-.594,1.335.329.116-1.405h.635l.116,1.393,1.335-.317.2.594-1.264.528.736,1.218-.515.375-.912-1.109L-22.9,8.952Z" transform="translate(23.944 -5.159)" fill="#2f57e5"/>
    </g>
  </g>
</svg>
