<svg id="report-icon" xmlns="http://www.w3.org/2000/svg" width="24" height="24" viewBox="0 0 24 24">
  <rect id="Rectangle_2003" data-name="Rectangle 2003" width="24" height="24" rx="7" fill="#edeff7"/>
  <g id="Group_12654" data-name="Group 12654" transform="translate(4.67 7.105)">
    <path id="Path_18520" data-name="Path 18520" d="M9.688.53H4.745A2.514,2.514,0,0,0,2.27,3.065V9.1a.335.335,0,0,0,.332.332.331.331,0,0,0,.234-.1L4.156,7.978h4.95a.669.669,0,0,1,.106-.2A1.156,1.156,0,0,1,10,7.359l.068-.015L10.3,7.3a1.527,1.527,0,0,1,1.245-2.407,1.427,1.427,0,0,1,.619.136V3.065A2.509,2.509,0,0,0,9.688.53ZM4.745,4.982A.66.66,0,1,1,5.4,4.326.663.663,0,0,1,4.745,4.982Zm2.475,0a.66.66,0,0,1,0-1.321.668.668,0,0,1,.657.664A.657.657,0,0,1,7.22,4.982Zm2.468,0a.66.66,0,1,1,.664-.657A.657.657,0,0,1,9.688,4.982Z" transform="translate(0)" fill="#2f57e5"/>
    <g id="Group_12363" data-name="Group 12363" transform="translate(10.844 5.646)">
      <path id="Path_18655" data-name="Path 18655" d="M15.179,8.087a.776.776,0,0,1-.777.777.209.209,0,0,1-.068-.008.767.767,0,0,1-.7-.77.775.775,0,0,1,.77-.777.758.758,0,0,1,.574.257A.749.749,0,0,1,15.179,8.087Z" transform="translate(-13.632 -7.31)" fill="#2f57e5"/>
    </g>
    <g id="Path_18467" data-name="Path 18467" transform="translate(9.59 7.782)">
      <path id="Path_18656" data-name="Path 18656" d="M14.362,13.913c-.008,0-.023.008-.03.008a6.427,6.427,0,0,1-.913.219,1.465,1.465,0,0,1-.181.015.885.885,0,0,1-.868-.7.866.866,0,0,1,.045-.5c.113-.5.272-.981.4-1.471a1.657,1.657,0,0,0,.06-.506.315.315,0,0,0-.136-.257.4.4,0,0,0-.226-.053H12.43c-.075.008-.151.023-.226.038a.952.952,0,0,1-.211.038c-.015,0-.023-.015-.023-.038a.685.685,0,0,1,.083-.241.424.424,0,0,1,.211-.143c.1-.03.211-.045.3-.068s.158-.03.241-.038l.008-.008.294-.045a.831.831,0,0,0,.136-.015c.053,0,.106-.008.166-.008a.744.744,0,0,1,.181.023.67.67,0,0,1,.332.151.5.5,0,0,1,.158.174,1.036,1.036,0,0,1,.091.657,1.36,1.36,0,0,1-.045.241c-.121.483-.287.958-.392,1.449-.128.543-.038.762.355.762a1.692,1.692,0,0,0,.362-.045l.143-.023A.318.318,0,0,1,14.362,13.913Z" transform="translate(-11.97 -10.14)" fill="#2f57e5"/>
    </g>
  </g>
</svg>
