<svg id="session-reminder-icon" xmlns="http://www.w3.org/2000/svg" width="48" height="48" viewBox="0 0 48 48">
  <rect id="Rectangle_2003" data-name="Rectangle 2003" width="48" height="48" rx="13" fill="#edeff7"/>
  <path id="Icon_awesome-video" data-name="Icon awesome-video" d="M12.591,4.5H1.326A1.867,1.867,0,0,0-.542,6.364V17.63A1.867,1.867,0,0,0,1.326,19.5H12.591a1.867,1.867,0,0,0,1.867-1.867V6.364A1.867,1.867,0,0,0,12.591,4.5Zm7.4,1.473L15.708,8.923v6.148L19.99,18.02a1.253,1.253,0,0,0,1.969-1.008V6.977A1.253,1.253,0,0,0,19.99,5.97Z" transform="translate(14.292 13.003)" fill="#2f57e5"/>
</svg>
