<svg id="solution-icon" xmlns="http://www.w3.org/2000/svg" width="24" height="24" viewBox="0 0 24 24">
  <rect id="Rectangle_2003" data-name="Rectangle 2003" width="24" height="24" rx="7" fill="#edeff7"/>
  <path id="Path_12508" data-name="Path 12508" d="M-3573.974,167.548c-.214.222-.416.455-.643.659a.676.676,0,0,1-.943-.045c-.227-.215-.444-.441-.665-.662-.069-.068-.136-.138-.206-.2a.482.482,0,0,0-.518-.172c-.214.077-.265.261-.287.463a.737.737,0,0,1-.784.708.893.893,0,0,1-.8-1.06.769.769,0,0,1,.694-.542.632.632,0,0,0,.335-.111c.207-.156.206-.423-.015-.654-.268-.279-.546-.549-.819-.822a.708.708,0,0,1,0-1.15q.391-.392.785-.784a.679.679,0,0,0,.172-.251.4.4,0,0,0-.292-.528,1.773,1.773,0,0,0-.185-.03.746.746,0,0,1-.681-.556.8.8,0,0,1,.3-.836.743.743,0,0,1,.807-.168.755.755,0,0,1,.482.686.459.459,0,0,0,.281.449.481.481,0,0,0,.52-.169q.4-.4.809-.808a.7.7,0,0,1,1.113.005c.262.261.522.524.785.783a.928.928,0,0,0,.2.156.392.392,0,0,0,.586-.239.772.772,0,0,0,.031-.167.738.738,0,0,1,.514-.7.777.777,0,0,1,.849.253.752.752,0,0,1,.192.817.751.751,0,0,1-.661.491c-.056.007-.113.012-.169.025a.4.4,0,0,0-.271.606.985.985,0,0,0,.16.2c.271.275.547.546.819.822a.686.686,0,0,1,0,1.065c-.168.17-.34.336-.506.508-.067.07-.1.105-.157-.02a1.359,1.359,0,0,0-1.733-.771,1.53,1.53,0,0,0-1.011,1.771,1.377,1.377,0,0,0,.768.907l.136.067S-3573.972,167.552-3573.974,167.548Z" transform="translate(3584.787 -154.838)" fill="#2f57e5"/>
  <path id="Path_12509" data-name="Path 12509" d="M-3438.562,303.429a.728.728,0,0,1-.714-.632,1.723,1.723,0,0,0-.065-.3.375.375,0,0,0-.568-.209,1.039,1.039,0,0,0-.24.19q-.385.387-.772.772a.684.684,0,0,1-1.065,0c-.263-.26-.523-.523-.785-.783a1.172,1.172,0,0,0-.153-.136.411.411,0,0,0-.683.294,2.216,2.216,0,0,1-.045.268.721.721,0,0,1-.977.476.944.944,0,0,1-.538-.52.743.743,0,0,1,.579-1.032c.028,0,.057-.006.085-.01a.474.474,0,0,0,.459-.295.478.478,0,0,0-.166-.506c-.268-.278-.546-.548-.818-.823a.692.692,0,0,1-.005-1.09c.266-.273.538-.54.808-.809a.675.675,0,0,0,.168-.234.388.388,0,0,0-.229-.528.729.729,0,0,0-.182-.042.757.757,0,0,1-.742-.632.887.887,0,0,1,.542-.9.751.751,0,0,1,1.052.632,1.684,1.684,0,0,0,.021.169.4.4,0,0,0,.616.274.889.889,0,0,0,.187-.147c.272-.266.542-.536.814-.8a.7.7,0,0,1,1.081,0c.166.164.328.331.5.494.071.069.1.108-.022.165a1.366,1.366,0,0,0-.828,1.479,1.6,1.6,0,0,0,1.243,1.279,1.361,1.361,0,0,0,1.486-.753c.1-.191.1-.191.25-.041s.291.288.434.435a.688.688,0,0,1,0,1.031c-.25.256-.506.507-.758.762a2.164,2.164,0,0,0-.171.19.417.417,0,0,0-.083.445.435.435,0,0,0,.393.256.736.736,0,0,1,.76.8A.882.882,0,0,1-3438.562,303.429Z" transform="translate(3455.736 -285.356)" fill="#4d5160"/>
</svg>
