<svg id="unsubscribe-icon" xmlns="http://www.w3.org/2000/svg" width="24" height="24" viewBox="0 0 24 24">
  <rect id="Rectangle_2003" data-name="Rectangle 2003" width="24" height="24" rx="7" fill="#edeff7"/>
  <g id="Group_12651" data-name="Group 12651" transform="translate(48.353 3.439)">
    <g id="Group_12651-2" data-name="Group 12651" transform="translate(-33.544 4.14)">
      <path id="Path_18744" data-name="Path 18744" d="M-22.429,4.14A2.169,2.169,0,0,0-24.6,6.311a2.173,2.173,0,0,0,2.171,2.176,2.174,2.174,0,0,0,2.176-2.176A2.17,2.17,0,0,0-22.429,4.14Zm1.124,2.486h-2.243V6h2.243Z" transform="translate(24.6 -4.14)" fill="#2f57e5"/>
    </g>
    <path id="Path_12496" data-name="Path 12496" d="M-34.357,8.68H-40.65a1.09,1.09,0,0,0-1.09,1.09v4.041a1.09,1.09,0,0,0,1.09,1.09h8.186a1.09,1.09,0,0,0,1.09-1.09V11.669A2.989,2.989,0,0,1-34.357,8.68Zm-.736,3.161a.094.094,0,0,1-.043.043l-1.052.607-1.052.607a.108.108,0,0,1-.143-.038.125.125,0,0,1-.014-.053V10.578a.107.107,0,0,1,.105-.11.1.1,0,0,1,.053.014l1.052.607,1.052.607A.105.105,0,0,1-35.093,11.841Z" transform="translate(0 -2.369)" fill="#2f57e5"/>
  </g>
</svg>
