<svg xmlns="http://www.w3.org/2000/svg" width="48" height="48" viewBox="0 0 48 48">
  <g id="wallet-icon" transform="translate(12 12)">
    <rect id="Rectangle_2003" data-name="Rectangle 2003" width="48" height="48" rx="13" transform="translate(-12 -12)" fill="#edeff7"/>
    <g id="Group_12467" data-name="Group 12467" transform="translate(0.346 -0.05)">
      <path id="Path_12302" data-name="Path 12302" d="M-830.228-375.689a17.347,17.347,0,0,1-.016,2.152,2.434,2.434,0,0,1-2.452,1.989q-5.7,0-11.4,0-2.967,0-5.934,0a2.5,2.5,0,0,1-2.617-2.59q0-6.163,0-12.327a2.5,2.5,0,0,1,2.559-2.544h1.571v1.645c-.313,0-.63-.008-.946,0a1.012,1.012,0,0,0-.45.085.485.485,0,0,0-.236.331.477.477,0,0,0,.226.335.907.907,0,0,0,.448.094q6.572.007,13.143,0c1.223,0,2.447-.005,3.67,0a2.484,2.484,0,0,1,2.487,2.48c.006.544,0,1.087,0,1.66h-1.92c-.815,0-1.631-.005-2.446,0a3.361,3.361,0,0,0-3.284,2.966,3.313,3.313,0,0,0,2.776,3.654,16.257,16.257,0,0,0,2.076.059C-832.054-375.683-831.135-375.689-830.228-375.689Z" transform="translate(852.649 395.648)" fill="#2f57e5"/>
      <path id="Path_12303" data-name="Path 12303" d="M-713.371-476.229c.146-.35.277-.677.419-1,.054-.123.062-.2-.081-.266a2.572,2.572,0,0,1-1.26-3.221.658.658,0,0,0,.017-.1l-2.378-1.007a2.635,2.635,0,0,1-1.424,1.393,2.558,2.558,0,0,1-1.974-.018l-1.788,4.213h-1.837c.084-.2.158-.384.235-.565.924-2.185,1.865-4.363,2.765-6.558a1.8,1.8,0,0,1,2.434-.99c2.316,1.015,4.657,1.974,6.986,2.961a1.7,1.7,0,0,1,.922,2.328c-.385.871-.786,1.735-1.172,2.606a.316.316,0,0,1-.344.231C-712.346-476.24-712.84-476.229-713.371-476.229Z" transform="translate(732.643 484.511)" fill="#4d5160"/>
      <path id="Path_12304" data-name="Path 12304" d="M-619.285-281.286c.668,0,1.336,0,2,0a.841.841,0,0,1,.922.918q0,1.573,0,3.147a.833.833,0,0,1-.905.907c-1.336,0-2.672.009-4.008,0a2.49,2.49,0,0,1-2.45-2.1,2.473,2.473,0,0,1,1.574-2.7,2.861,2.861,0,0,1,.887-.165C-620.6-281.3-619.944-281.286-619.285-281.286Zm-2.2,2.489a.963.963,0,0,0,.976.966.97.97,0,0,0,.963-.957.978.978,0,0,0-.994-.982A.966.966,0,0,0-621.481-278.8Z" transform="translate(639.666 295.416)" fill="#2f57e5"/>
      <path id="Path_12305" data-name="Path 12305" d="M-751.875-465.106c.154-.581.3-1.114.437-1.647.4-1.512.791-3.026,1.2-4.534a1.674,1.674,0,0,1,2.285-1.125q-.219.52-.439,1.042-1.283,3.034-2.563,6.069c-.057.137-.119.21-.281.2C-751.428-465.118-751.628-465.106-751.875-465.106Z" transform="translate(758.879 473.389)" fill="#4d5160"/>
      <path id="Path_12306" data-name="Path 12306" d="M-670.8-396.264h-5.78a2.093,2.093,0,0,1,.781-1.642,3,3,0,0,1,3.277-.311,3.042,3.042,0,0,1,1.621,1.642C-670.86-396.482-670.836-396.383-670.8-396.264Z" transform="translate(688.816 404.533)" fill="#4d5160"/>
      <path id="Path_12307" data-name="Path 12307" d="M-776.747-460.094c-.454,1.712-.9,3.408-1.353,5.1-.111.418-.223.835-.327,1.255-.038.154-.1.242-.279.223-.162-.017-.327,0-.525,0,.039-.319.074-.615.114-.911q.28-2.1.562-4.194A1.677,1.677,0,0,1-776.747-460.094Z" transform="translate(784.335 461.8)" fill="#4d5160"/>
    </g>
  </g>
</svg>
