<svg xmlns="http://www.w3.org/2000/svg" width="33" height="33" viewBox="0 0 33 33">
  <g id="video-off-icon" transform="translate(-0.002 -0.204)">
    <rect id="thisisengineering-raeng-DbLlKd8u2Rw-unsplash" width="33" height="33" rx="7" transform="translate(0.002 0.204)" fill="#edeff7" opacity="0"/>
    <g id="Group_12662" data-name="Group 12662" transform="translate(9.251 7.634)">
      <path id="Icon_awesome-video" data-name="Icon awesome-video" d="M9.425,4.5H1.34A1.34,1.34,0,0,0,0,5.84v8.085a1.34,1.34,0,0,0,1.34,1.34H9.425a1.34,1.34,0,0,0,1.34-1.34V5.84A1.34,1.34,0,0,0,9.425,4.5Zm5.31,1.057L11.663,7.676v4.413l3.073,2.117a.9.9,0,0,0,1.413-.723V6.28A.9.9,0,0,0,14.735,5.557Z" transform="translate(0 -1.014)" fill="#4d5160" opacity="0"/>
      <g id="Group_6152" data-name="Group 6152">
        <path id="Icon_awesome-video-2" data-name="Icon awesome-video" d="M110.745,17.35H109.35a1.339,1.339,0,0,0-1.34,1.338v8.087a1.339,1.339,0,0,0,1.34,1.34h7.707Zm6.69,0h-3.307l4.648,7.93V18.688A1.339,1.339,0,0,0,117.435,17.35Zm5.811.894a.9.9,0,0,0-.5.162l-3.074,2.119v4.414l3.074,2.116a.9.9,0,0,0,1.412-.724v-7.2A.9.9,0,0,0,123.247,18.244Z" transform="translate(-108.01 -13.488)" fill="#4d5160"/>
        <g id="Path_12334" data-name="Path 12334" transform="translate(1.87)">
          <path id="Path_12446" data-name="Path 12446" d="M126.146,19.034a.019.019,0,0,1-.01,0,.718.718,0,0,1-.354.093h0a.689.689,0,0,1-.6-.344l-1.537-2.622L117.376,5.482l-1.652-2.818a.69.69,0,0,1,.238-.943l.012,0a.7.7,0,0,1,.958.25l2.062,3.516,5.529,9.43,1.863,3.179A.688.688,0,0,1,126.146,19.034Z" transform="translate(-115.627 -1.62)" fill="#4d5160"/>
        </g>
      </g>
    </g>
  </g>
</svg>
