<svg xmlns="http://www.w3.org/2000/svg" xmlns:xlink="http://www.w3.org/1999/xlink" width="349.495" height="214.903" viewBox="0 0 349.495 214.903">
  <defs>
    <linearGradient id="linear-gradient" x1="0.534" y1="-0.057" x2="0.483" y2="1.04" gradientUnits="objectBoundingBox">
      <stop offset="0" stop-color="#ffc444"/>
      <stop offset="0.81" stop-color="#f36f56"/>
    </linearGradient>
    <linearGradient id="linear-gradient-2" x1="0.378" y1="1.27" x2="0.565" y2="-0.04" xlink:href="#linear-gradient"/>
    <linearGradient id="linear-gradient-3" x1="0.534" y1="-0.048" x2="0.483" y2="1.048" xlink:href="#linear-gradient"/>
    <linearGradient id="linear-gradient-4" x1="0.521" y1="2.038" x2="0.503" y2="0.708" gradientUnits="objectBoundingBox">
      <stop offset="0" stop-color="#2f57e5"/>
      <stop offset="0.996" stop-color="#7398ff"/>
    </linearGradient>
    <linearGradient id="linear-gradient-5" x1="0.497" y1="0.135" x2="0.52" y2="2.743" xlink:href="#linear-gradient-4"/>
    <linearGradient id="linear-gradient-6" x1="1.06" y1="0.471" x2="-0.778" y2="0.58" xlink:href="#linear-gradient-4"/>
    <linearGradient id="linear-gradient-7" x1="-0.314" y1="-0.684" x2="1.652" y2="2.175" gradientUnits="objectBoundingBox">
      <stop offset="0" stop-color="#ffc444"/>
      <stop offset="1" stop-color="#f36f56"/>
    </linearGradient>
    <linearGradient id="linear-gradient-8" x1="-0.444" y1="-0.874" x2="1.522" y2="1.986" xlink:href="#linear-gradient-7"/>
    <linearGradient id="linear-gradient-9" x1="-0.575" y1="-1.063" x2="1.391" y2="1.796" xlink:href="#linear-gradient-7"/>
  </defs>
  <g id="_500-internal-server-vector" data-name="500-internal-server-vector" transform="translate(-2158 -3137.572)">
    <g id="Group_12499" data-name="Group 12499" transform="translate(2158 3204.726)">
      <path id="Fill_3" data-name="Fill 3" d="M14.775,0a14.775,14.775,0,1,0,0,29.55H31.93A14.775,14.775,0,0,0,31.93,0Z" transform="translate(26.382 118.199)" fill="#edeff7"/>
      <path id="Fill_5" data-name="Fill 5" d="M280.141.151a14.884,14.884,0,0,0-2-.151H91.173a14.775,14.775,0,0,0,0,29.55H98.3v.017a14.761,14.761,0,0,1,0,29.515V59.1H14.775a14.775,14.775,0,0,0,0,29.55h105.4v.017a14.761,14.761,0,0,1,0,29.514v.017H116.9a14.775,14.775,0,1,0,0,29.55h161.24a14.883,14.883,0,0,0,2-.151,73.861,73.861,0,0,0,0-147.447Z" transform="translate(0)" fill="#edeff7"/>
      <path id="Fill_28" data-name="Fill 28" d="M51.4,10.409H5.2A5.2,5.2,0,1,1,5.2,0H51.4a5.2,5.2,0,1,1,0,10.409" transform="translate(250.85 33.089)" fill="#fff"/>
    </g>
    <g id="Group_11994" data-name="Group 11994" transform="translate(2395.751 3137.572)">
      <g id="Group_11989" data-name="Group 11989" transform="translate(14.732 41.773)">
        <rect id="Rectangle_2573" data-name="Rectangle 2573" width="0.266" height="4.907" transform="translate(0 0.096) rotate(-21.125)" fill="#fff"/>
      </g>
      <g id="Group_11990" data-name="Group 11990" transform="translate(18.435 41.773)">
        <rect id="Rectangle_2574" data-name="Rectangle 2574" width="4.907" height="0.266" transform="translate(0 4.578) rotate(-68.875)" fill="#fff"/>
      </g>
      <g id="Group_11991" data-name="Group 11991" transform="translate(17.488 42.299)">
        <rect id="Rectangle_2575" data-name="Rectangle 2575" width="0.266" height="4.1" fill="#fff"/>
      </g>
      <g id="Group_11992" data-name="Group 11992" transform="translate(0 0)">
        <path id="Path_18412" data-name="Path 18412" d="M1405.321,1810.567v42.252h-3.538s-18.577-18.191-14.155-30.929a16.05,16.05,0,0,1,12.286-10.912h0a20.451,20.451,0,0,1,3.459-.44A14.652,14.652,0,0,1,1405.321,1810.567Z" transform="translate(-1386.948 -1810.521)" fill="#fff"/>
        <path id="Path_18413" data-name="Path 18413" d="M1402.618,1853.73h-.835s-18.577-18.191-14.155-30.93a16.05,16.05,0,0,1,12.286-10.912C1384.693,1827.292,1402.618,1853.73,1402.618,1853.73Z" transform="translate(-1386.948 -1811.431)" fill="url(#linear-gradient)"/>
      </g>
      <g id="Group_11993" data-name="Group 11993" transform="translate(12.967)">
        <path id="Path_18414" data-name="Path 18414" d="M1437.355,1810.567v42.252h3.538s18.576-18.191,14.154-30.929a16.05,16.05,0,0,0-12.285-10.912h0a20.451,20.451,0,0,0-3.459-.44A14.644,14.644,0,0,0,1437.355,1810.567Z" transform="translate(-1433.453 -1810.521)" fill="#fff"/>
        <path id="Path_18415" data-name="Path 18415" d="M1431.544,1810.537c-.476-.02-.879-.019-1.194-.01-.315-.008-.718-.01-1.194.01-7.785,15.007,0,42.283,0,42.283h2.388S1439.329,1825.544,1431.544,1810.537Z" transform="translate(-1425.696 -1810.521)" fill="url(#linear-gradient-2)"/>
        <path id="Path_18416" data-name="Path 18416" d="M1445.432,1853.73h.835s18.577-18.191,14.155-30.93a16.05,16.05,0,0,0-12.286-10.912C1463.358,1827.292,1445.432,1853.73,1445.432,1853.73Z" transform="translate(-1438.827 -1811.431)" fill="url(#linear-gradient-3)"/>
      </g>
      <rect id="Rectangle_2576" data-name="Rectangle 2576" width="3.645" height="2.311" transform="translate(15.798 45.321)" fill="url(#linear-gradient-4)"/>
      <rect id="Rectangle_2577" data-name="Rectangle 2577" width="3.901" height="1.946" transform="translate(15.67 46.399)" fill="url(#linear-gradient-5)"/>
    </g>
    <g id="Group_12528" data-name="Group 12528" transform="translate(2771.896 3059.485)">
      <g id="Group_12526" data-name="Group 12526" transform="translate(-544.896 126.431)">
        <g id="Group_12525" data-name="Group 12525">
          <g id="Group_12524" data-name="Group 12524">
            <g id="Group_12523" data-name="Group 12523">
              <path id="Path_18752" data-name="Path 18752" d="M-451.383,303.379c-1.631.1-3.275.159-4.928.159C-454.654,303.538-453.014,303.478-451.383,303.379Z" transform="translate(539.453 -137.303)" fill="#fff"/>
              <g id="Group_12522" data-name="Group 12522">
                <path id="Path_18753" data-name="Path 18753" d="M-386.222,268.588c-.74,1.352-.219.882,3.97-5.584q-1.557,2.4-3.278,4.7C-385.756,268-385.994,268.291-386.222,268.588Z" transform="translate(535.164 -134.822)" fill="#2494c6"/>
                <path id="Path_18754" data-name="Path 18754" d="M-389.7,173.854c-1.923-.656-3.969-.4-5.889-.949-1.136-.327-1.094-1.021-1.092-2.024,0-1.337-1.072-2.04-2.211-2.495a8.066,8.066,0,0,1-4.058-3.427c-.676-1.121-3.189-4.846-4.4-2.285-1.165,2.463-2.25,4.636-5.464,4.515a5.224,5.224,0,0,1-4.712-5.159c-.048-3.1,4.153-2.923,3.814-6.219-.374-3.618-4.544-5.665-7.347-7.223-.127-.069-2-1.107-1.742-1.278.917-.593,3.332.4,4.154.829,1.71.894,4.163,4.569,6.448,3.151,2.323-1.438-2.579-5.335-3.646-5.868-1.138-.568-2.849-.441-3.7-1.478-.724-.889-.692-2.25-1.133-3.278-1.19-2.767-4.894-4.67-7.762-5.185-2.126-.378-5.007-1.65-5.217-4.065-.7-.264-1.415-.5-2.13-.74-2.548,1.19-4.927,2.713-7.5,3.862-1.155.517-3.36,1.657-4.63.821-2.037-1.338.388-5.369-1.237-7.114-1.19-1.285-3.881-.2-5.367-.2-.374,0-1.779-.466-1.986.048-.184.463.273,1.193.448,1.6.688,1.614.561,3.068-1.666,2.747a6.593,6.593,0,0,1-4.058-2.9l-3.669,1.59c2.04,4.906-10.7-.314-11.357,2.183-.213.806,1.307,1.78,1.974,1.758.453-.013,1.323-.908,1.691-.584.812.726.857,2.789.94,3.8.012.162-.077,1.491.225,1.209,2.053-1.91,4.652-2.963,6.73-4.835a6.16,6.16,0,0,1,2.255-1.673c1.159-.295,2.266.806,3.005,1.526,2.695,2.631,5.744,6.509,5.322,10.548-.064.606-.34,1.851-1.2,1.7-1.174-.2-1.841-2.291-2.6-3.059-1.615-1.634-5.912-3.5-7.2-.451-.86,2.05,2.095,3.081,3.478,3.735.482.229,1.507.577,1.657,1.181.206.832-1.768,1.317-2.253,1.383-2.624.361-4.576-1.812-6.387-3.335-1.679-1.413-.806,1.44-.181,2.161.177.2.844.736.637,1.06-.425.673-2.415.6-3.049.66a20.784,20.784,0,0,0-10.627,3.738,30.955,30.955,0,0,0-5.66,5.186c-.111.13-.22.263-.327.393a49.056,49.056,0,0,1-2.764,8.8c-.71,1.5-1.063.625-1.108-.619-.108-2.836.714-6.286-1.1-8.767-3.252-4.465-10.594,1.9-13.028,4.29-1.962,1.923-5.224,5.851-2.892,8.682,2.288,2.776,4.7-1.238,7.035-1.479a4.408,4.408,0,0,1,2.71.606c-1.367,1.275-2.859,2.4-4.249,3.649-.644.574-1.069,1.155,0,1.454,1.053.295,2.735.12,3.516,1.018.673.768-.076,2.174-.353,2.961-.64,1.841-1.862,6.079-.006,7.657,1.367,1.157,4.73-.346,6.175-.664,7.124-1.567,14.952-1.282,19.185,5.538a12.369,12.369,0,0,0,2.04,3.151,13.146,13.146,0,0,0,3.62,1.939,5.071,5.071,0,0,1,2.523,1.662c.79,1.337-.58,3.017-1.168,4.129-.968,1.818-3,4.861-2.611,7.1a.657.657,0,0,0,.936.536c5.439.188,11.624,1.771,16.094,4.97,1.659,1.186,3.37,2.941,3.259,5.143-.155,3.088-3.376,5-5.429,6.813-3.6,3.189-6.15,6.324-7.125,11.037-.876,4.217-4.766,5.839-8.716,6.432-3.491,12.105-11.462,10.2-11.462,10.2-.869,2.183-2.215,6.045-4.874,6.7-1.1.273-2.358-.289-3.2.7-1.694,2.006-.885,5.312-.469,7.622.232,1.286,1.565,5.645-.641,6a4.254,4.254,0,0,1-4.461-3.076c-1-3.078-.489-6.714-.216-9.865A32.077,32.077,0,0,0-498.3,251.6c-.682-2.361-2.179-5.551-1.25-8.023.47-1.244,1.682-1.8,2.539-2.732a10.449,10.449,0,0,0,2.383-4.661c.556-2.3.787-5.842-1.307-7.492-1.85-1.457-5.1-2.047-6.251-4.255-.7-1.352.444-2.44,1.085-3.529a5.83,5.83,0,0,0,.285-5.724c-1.336-2.742-4.769-4.683-5.448-7.723-.764-3.424,3.453-6.492,5.524-8.5,1.565-1.517,3.11-3.063,4.57-4.681a14.254,14.254,0,0,0,2.831-3.808c.368-.9-.213-1.17-1.047-1.018-1.942.352-3.583,1.04-5.607.673a7.69,7.69,0,0,1-4.315-2.314,37.082,37.082,0,0,0-.822-5.214,3.091,3.091,0,0,0-.94-1.822c-1.056-.726-1.821-.736-2.551-2.024a14.717,14.717,0,0,0-1.923-3.2,11.736,11.736,0,0,0-2.742-1.977c-1.745-1-3.163-2.047-2.849-4.278.54-3.833,3.329-7.053,4.2-10.849.251-1.094.4-4.2-1.419-2.4a11.453,11.453,0,0,0-2.1,3.361c-.312.682-.755,1.818-1.5,2.155-1.218.555-.327-3.231-.237-3.522,2.1-6.886,8.082-10.655,13.236-15.115.444-.384,3.633-2.751,3.154-3.532a5.839,5.839,0,0,1-3.557-1.138A83.994,83.994,0,0,0-537.838,176.1a83.456,83.456,0,0,0-5.355,50.361,84,84,0,0,0,55.921,62.284,83.437,83.437,0,0,0,49.654.406,83.787,83.787,0,0,0,41.664-28.879c.894-1.638,3.636-5.956,3.97-5.584-.933-1.035-1.863-2.04-3.3-1.317a12.279,12.279,0,0,0-3.2,2.767c-2.748,2.971-5.21,6.194-8.146,8.987-1.443,1.374-2.989,2.618-4.35,4.077a20.434,20.434,0,0,1-2.792,2.916c-2.044,1.463-3.561-3.934-3.78-5.1-.6-3.167,1.2-5.791,3.452-7.812,1.491-1.339,5.211-3.139,5.4-5.351.206-2.342-2.523-4.486-1.643-6.828.529-1.415,2.323-1.844,3.3-2.891a9.154,9.154,0,0,0,2.015-4.329A12,12,0,0,1-404,236.3c.584-.977,1.675-1.609,2.32-2.592,1.526-2.335,2.589-5.908.52-8.257-.726-.825-2.339-1.289-2.656-2.424-.235-.834.7-1.533,1.26-1.977,1.774-1.425,3.958-2.932,3.209-5.537-.625-2.18-2.605.387-3.849.285-1.7-.143-1.2-3.645-1.46-4.791-.295-1.279-4.62.54-5.248.71-2.6.721-6.467,1.978-8.732-.222-1.917-1.856-2.19-4.943-3.176-7.3-1.266-3.023-3.662-5.166-5.464-7.822-1.434-2.113,1.862-1.459,3.112-1.945,2.447-.955,2.853-3.865,2.876-6.172.022-2.1-.34-4.173-.457-6.267a7.736,7.736,0,0,1,.4-3.846c.853-1.666,3.259-1.066,4.7-1.694,1.139-.5,1.133-1.673,1.282-2.732.228-1.635,1.288-1.914,2.726-2.269,2.805-.692,5.522-2.551,8.466-2.56a2.17,2.17,0,0,1,2.3,1.675c.2.784-.12,2.583.489,3.208.241.248,1.022.2,1.352.372,1.694.869,2.888,2.691,4.04,4.134.381.482,1.129,1.847,1.859,1.895.638.044,1.542-.981,2.038-1.292,1.329-.834,3.291-1.23,4.21-2.586C-387.031,175.032-388.739,174.185-389.7,173.854Z" transform="translate(544.896 -126.504)" fill="url(#linear-gradient-6)"/>
                <path id="Path_18755" data-name="Path 18755" d="M-386.2,268.587c.228-.3.466-.587.692-.889q1.718-2.289,3.278-4.7C-382.568,262.631-385.31,266.949-386.2,268.587Z" transform="translate(535.146 -134.821)" fill="#2494c6"/>
                <path id="Path_18756" data-name="Path 18756" d="M-535.605,175.343q-.71,1.409-1.365,2.853Q-536.313,176.753-535.605,175.343Z" transform="translate(544.409 -129.436)" fill="#fff"/>
                <path id="Path_18757" data-name="Path 18757" d="M-535.364,175.025c-.051.1-.1.2-.152.3C-535.465,175.222-535.415,175.124-535.364,175.025Z" transform="translate(544.32 -129.417)" fill="#fff"/>
                <path id="Path_18758" data-name="Path 18758" d="M-536.984,178.383c-.07.152-.139.3-.209.456C-537.123,178.687-537.05,178.535-536.984,178.383Z" transform="translate(544.423 -129.623)" fill="#fff"/>
                <path id="Path_18759" data-name="Path 18759" d="M-538.772,182.413c-.438,1.1-.857,2.214-1.247,3.338Q-539.429,184.065-538.772,182.413Z" transform="translate(544.596 -129.871)" fill="#fff"/>
                <path id="Path_18760" data-name="Path 18760" d="M-537.272,178.869q-.628,1.405-1.2,2.831Q-537.9,180.272-537.272,178.869Z" transform="translate(544.502 -129.653)" fill="#fff"/>
                <path id="Path_18761" data-name="Path 18761" d="M-535.354,172.039a83.746,83.746,0,0,1,31.58-33.851,5.839,5.839,0,0,0,3.557,1.138s1.593,0-8.593,7.959-9.241,19.007-6.057,12.055,6.057-4.407.961,5.467,2.678,6.686,5.312,12.734c2.65,6.048,3.605-1.27,4.874,10.2,0,0,3.2,3.82,8.92,1.91s-.955,5.09-7.007,10.827-4.144,7.634-.954,11.144,4.461,6.368,1.593,10.2,4.462,5.09,6.369,7.317,1.59,9.557-2.865,12.747,2.23,10.186,1.266,20.061-.721,14,3.782,14.644-.593-8.6,1.317-12.733,4.147,2.868,8.6-8.279c0,0,7.971,1.91,11.462-10.2,0,0,7-.958,8.286-4.775s-.321-6.369,9.865-14.648-7.006-14.654-16.234-14.971c0,0-3.385,1.381,2.548-9.237,2.586-4.636-5.1-3.5-7.006-7.638s-6.365-8.916-15.285-7.965-11.474,4.145-11.782-1.273,3.813-7.955-.645-8.6-2.227-.958,2.558-5.416a4.519,4.519,0,0,0-5.736.958c-2.869,2.869-7.966-1.59-1.914-7.958s15.6-11.154,14.968.952,3.824-5.467,3.824-5.467,6.689-8.548,14.971-9.177,3.183-.961,3.183-3.829,3.817,4.778,8.444,2.868c4.61-1.917-4.947-2.548-3.989-5.728s6.378-2.237,8.6,1.911,4.776-2.228-.952-8.927c-5.737-6.68-4.779-2.539-10.2.32s-3.18,4.459-4.138-.32-1.269.32-3.82-2.218,4.544-1.374,8.278-.962,2.548-2.227,2.548-2.227l3.669-1.59s2.389,3.5,5.248,2.859-1.911-5.1.948-4.458,6.689-1.91,7.01,1.917-2.231,8.92,8.286,3.18c2.119-1.152,3.535-1.9,4.5-2.355a83,83,0,0,0-26-4.173A83.077,83.077,0,0,0-535.354,172.039Z" transform="translate(544.31 -126.431)" fill="#edeff7"/>
                <path id="Path_18762" data-name="Path 18762" d="M-538.487,181.885c-.067.165-.136.327-.2.5C-538.623,182.212-538.554,182.05-538.487,181.885Z" transform="translate(544.515 -129.838)" fill="#fff"/>
                <path id="Path_18763" data-name="Path 18763" d="M-426.376,131.682a3.125,3.125,0,0,0,1.643,2.56c4.141,2.539,2.872.312,8.279,3.5s1.91,6.689,6.048,7.327,7.965,6.368,4.786,6.689-3.506-3.5-8.276-4.147c-4.789-.632,1.91,1.59,5.09,4.468,3.186,2.859,3.186,6.255,0,7.587s-.829,8.656,4.363,7.7,3.271-6.369,6.143-5.087,1.907,4.449,6.686,6.365-.641,4.452,5.1,4.77,8.6,2.551,3.5,4.778-2.539,4.138-7.006-1.278-4.018-.225-4.459-5.407-7.638-.321-11.455.317-.641,4.458-4.148,5.09-5.1-.312-4.141,7.965-1.269,10.189-5.1,10.189,3.2,4.458,5.1,10.2,2.24,9.237,10.517,7.006,5.727-2.227,6.689,2.231,4.458-2.551,5.086,1.907-7.955,5.416-3.189,8.275,1.292,9.558-.949,11.148-.64,7.317-5.406,9.875c-4.789,2.548,2.227,7-.642,9.878s-10.516,6.365-7.646,13.374,2.878,2.86,8.926-2.24,11.144-13.686,14.016-13.365c1.026.115,1.514.914,2.124,1.59a83.65,83.65,0,0,1-38.758,32.037,83.121,83.121,0,0,0,52.068-77.1A83.109,83.109,0,0,0-426.376,131.682Z" transform="translate(537.614 -126.754)" fill="#edeff7"/>
                <path id="Path_18764" data-name="Path 18764" d="M-427.867,131.141c.469.159.933.34,1.4.508v-.016C-426.934,131.458-427.4,131.3-427.867,131.141Z" transform="translate(537.706 -126.72)" fill="#fff"/>
              </g>
            </g>
          </g>
        </g>
        <path id="Path_18765" data-name="Path 18765" d="M-411.135,291.082c-.2.117-.405.216-.605.33h0C-411.54,291.3-411.331,291.2-411.135,291.082Z" transform="translate(536.715 -136.547)" fill="#d0c7ab"/>
        <path id="Path_18766" data-name="Path 18766" d="M-516.214,149.7c.7-.64,1.428-1.244,2.145-1.862h0C-514.786,148.452-515.516,149.058-516.214,149.7Z" transform="translate(543.134 -127.746)" fill="#d0c7ab"/>
        <path id="Path_18767" data-name="Path 18767" d="M-390.387,273.978c-.067.077-.143.146-.212.222h0C-390.532,274.124-390.456,274.055-390.387,273.978Z" transform="translate(535.416 -135.496)" fill="#d0c7ab"/>
        <path id="Path_18768" data-name="Path 18768" d="M-390.929,274.313l0,0c-1.162,1.282-2.355,2.532-3.592,3.741Q-392.668,276.244-390.929,274.313Z" transform="translate(535.657 -135.517)" fill="#d0c7ab"/>
        <path id="Path_18769" data-name="Path 18769" d="M-419.347,295.254c-1.3.606-2.59,1.229-3.922,1.768,1.336-.537,2.624-1.159,3.925-1.768h0Z" transform="translate(537.423 -136.804)" fill="#d0c7ab"/>
        <path id="Path_18770" data-name="Path 18770" d="M-412.437,291.667l-.013.007c-1.354.781-2.719,1.549-4.122,2.256C-415.166,293.218-413.795,292.454-412.437,291.667Z" transform="translate(537.012 -136.583)" fill="#d0c7ab"/>
      </g>
      <g id="Group_12527" data-name="Group 12527" transform="translate(-444.164 159.693)">
        <rect id="Rectangle_2679" data-name="Rectangle 2679" width="94.78" height="133.297" transform="translate(7.704)" fill="#d4d4d4"/>
        <path id="Path_18771" data-name="Path 18771" d="M-336.479,205.473H-428.47c-5.026,0-9.1-3.376-9.1-7.539V180.827c0-4.163,4.074-7.54,9.1-7.54h91.991c5.023,0,9.1,3.377,9.1,7.54v17.106C-327.381,202.1-331.456,205.473-336.479,205.473Z" transform="translate(437.57 -162.572)" fill="url(#linear-gradient-7)"/>
        <path id="Path_18772" data-name="Path 18772" d="M-336.479,248.039H-428.47c-5.026,0-9.1-3.376-9.1-7.537V223.394c0-4.163,4.074-7.537,9.1-7.537h91.991c5.023,0,9.1,3.373,9.1,7.537V240.5C-327.381,244.663-331.456,248.039-336.479,248.039Z" transform="translate(437.57 -165.187)" fill="url(#linear-gradient-8)"/>
        <path id="Path_18773" data-name="Path 18773" d="M-336.479,290.605H-428.47c-5.026,0-9.1-3.373-9.1-7.537v-17.11c0-4.163,4.074-7.536,9.1-7.536h91.991c5.023,0,9.1,3.372,9.1,7.536v17.11C-327.381,287.232-331.456,290.605-336.479,290.605Z" transform="translate(437.57 -167.803)" fill="url(#linear-gradient-9)"/>
        <path id="Path_18774" data-name="Path 18774" d="M-348.346,186.916a3.991,3.991,0,0,1-3.992,3.992,3.991,3.991,0,0,1-3.989-3.992,3.991,3.991,0,0,1,3.989-3.993A3.99,3.99,0,0,1-348.346,186.916Z" transform="translate(432.578 -163.164)" fill="#edeff7"/>
        <path id="Path_18775" data-name="Path 18775" d="M-335.813,186.916a3.99,3.99,0,0,1-3.989,3.992,3.992,3.992,0,0,1-3.992-3.992,3.991,3.991,0,0,1,3.992-3.993A3.99,3.99,0,0,1-335.813,186.916Z" transform="translate(431.808 -163.164)" fill="#edeff7"/>
        <path id="Path_18776" data-name="Path 18776" d="M-348.346,226.56a3.99,3.99,0,0,1-3.992,3.992,3.99,3.99,0,0,1-3.989-3.992,3.99,3.99,0,0,1,3.989-3.989A3.99,3.99,0,0,1-348.346,226.56Z" transform="translate(432.578 -165.6)" fill="#edeff7"/>
        <path id="Path_18777" data-name="Path 18777" d="M-335.813,226.56a3.99,3.99,0,0,1-3.989,3.992,3.991,3.991,0,0,1-3.992-3.992,3.991,3.991,0,0,1,3.992-3.989A3.99,3.99,0,0,1-335.813,226.56Z" transform="translate(431.808 -165.6)" fill="#edeff7"/>
        <path id="Path_18778" data-name="Path 18778" d="M-348.346,266.208a3.99,3.99,0,0,1-3.992,3.992,3.99,3.99,0,0,1-3.989-3.992,3.991,3.991,0,0,1,3.989-3.992A3.991,3.991,0,0,1-348.346,266.208Z" transform="translate(432.578 -168.036)" fill="#edeff7"/>
        <path id="Path_18779" data-name="Path 18779" d="M-335.813,266.208A3.99,3.99,0,0,1-339.8,270.2a3.991,3.991,0,0,1-3.992-3.992,3.992,3.992,0,0,1,3.992-3.992A3.99,3.99,0,0,1-335.813,266.208Z" transform="translate(431.808 -168.036)" fill="#edeff7"/>
      </g>
    </g>
  </g>
</svg>
